<svg width="483" height="419" viewBox="0 0 483 419" fill="none" xmlns="http://www.w3.org/2000/svg">
<path d="M65.8881 407.57C78.9312 415.1 100.177 415.1 113.354 407.57C126.398 400.04 126.398 387.804 113.354 380.139C100.311 372.609 79.0657 372.609 65.8881 380.139C52.845 387.669 52.845 399.906 65.8881 407.57Z" fill="#B2D3EA"/>
<path d="M178.57 393.317L287.353 331.327C291.387 329.041 290.849 325.007 286.277 322.318L223.616 286.146C219.044 283.457 212.052 283.188 208.153 285.474L99.37 347.463C95.3361 349.749 95.8739 353.783 100.446 356.473L163.107 392.644C167.678 395.334 174.536 395.603 178.57 393.317Z" fill="#B2D3EA"/>
<path d="M89.6885 326.755V72.7468L190.672 46.2567L209.228 35.4993C213.531 33.0789 220.927 33.3479 225.902 36.1717L243.248 46.2567H297.169L281.167 291.525C281.302 293.139 280.361 294.752 278.344 295.962L177.629 371.936C173.326 374.357 165.93 374.088 160.955 371.264L93.8569 332.538C90.8987 330.789 89.4195 328.638 89.6885 326.755Z" fill="#396CAA"/>
<path d="M216.893 33.8857C219.986 34.0202 223.213 34.6925 225.768 36.1717L243.114 46.2567H297.035V300.938C297.169 302.551 296.228 304.165 294.211 305.375L177.495 371.936C175.478 373.147 172.654 373.684 169.83 373.55L168.62 117.255L216.893 33.8857Z" fill="#D4ECFF"/>
<path d="M176.419 372.474C172.788 374.088 167.41 373.953 163.107 372.34V114.297H176.419V372.474Z" fill="#5793CE"/>
<path d="M177.496 117.255L294.212 50.6941C298.514 48.2737 297.977 43.9708 293.001 41.0125L225.903 2.28592C220.928 -0.537888 213.532 -0.806822 209.229 1.61359L92.5133 68.1749C88.2104 70.5953 88.7483 74.8982 93.7235 77.8565L160.822 116.583C165.797 119.407 173.193 119.81 177.496 117.255Z" fill="#D4ECFF"/>
<path d="M93.7226 73.1501L160.821 111.877C165.796 114.701 173.192 114.969 177.495 112.549L294.211 45.9878C295.152 45.4499 295.824 44.7776 296.362 44.1052C297.841 46.5256 297.169 49.0805 294.211 50.6941L177.495 117.255C173.192 119.676 165.796 119.407 160.821 116.583L93.7226 77.8565C89.9576 75.705 88.7474 72.6123 90.3609 70.1919C91.0333 71.1331 92.109 72.2089 93.7226 73.1501Z" fill="#FAFDFF"/>
<path d="M174.267 90.362L251.988 45.3155C254.005 44.1053 253.736 42.0883 251.451 40.8781L219.986 22.725C217.7 21.3803 214.204 21.2458 212.187 22.456L134.465 67.5026C132.448 68.7128 132.717 70.7298 135.003 71.94L166.468 90.0931C168.754 91.3033 172.25 91.4377 174.267 90.362Z" fill="#173D7A"/>
<path d="M216.221 47.3325L220.658 44.7776C220.927 44.6432 220.927 44.3742 220.523 44.1053L216.221 41.5504C215.952 41.4159 215.414 41.2815 215.145 41.5504L210.707 44.1053C210.439 44.2398 210.439 44.5087 210.842 44.7776L215.145 47.3325C215.414 47.467 215.817 47.467 216.221 47.3325Z" fill="#D4ECFF"/>
<path d="M201.16 55.9384L205.598 53.3835C205.867 53.2491 205.867 52.9801 205.463 52.7112L201.16 50.1563C200.891 50.0218 200.354 49.8874 200.085 50.1563L195.647 52.7112C195.378 52.8457 195.378 53.1146 195.782 53.3835L200.085 55.9384C200.354 56.0729 200.891 56.0729 201.16 55.9384Z" fill="#D4ECFF"/>
<path d="M186.1 64.5443L190.538 61.9894C190.807 61.8549 190.807 61.586 190.403 61.3171L186.1 58.7622C185.831 58.6277 185.293 58.4933 185.025 58.7622L180.587 61.3171C180.318 61.4515 180.318 61.7205 180.722 61.9894L185.025 64.5443C185.293 64.6788 185.831 64.8132 186.1 64.5443Z" fill="#D4ECFF"/>
<path d="M171.04 73.2846L175.477 70.7298C175.746 70.5953 175.746 70.3264 175.343 70.0574L171.04 67.5026C170.771 67.3681 170.233 67.2336 169.964 67.5026L165.527 70.0574C165.258 70.1919 165.258 70.4608 165.662 70.7298L169.964 73.2846C170.233 73.4191 170.771 73.4191 171.04 73.2846Z" fill="#D4ECFF"/>
<path d="M251.854 45.3155C251.585 45.3155 251.451 45.181 251.316 45.0465L219.986 26.8935C217.7 25.5488 214.204 25.4143 212.187 26.6245L134.6 71.6711C132.718 70.3264 132.718 68.5783 134.466 67.5026L212.187 22.456C214.204 21.2458 217.7 21.3803 219.986 22.725L251.451 40.8781C253.602 42.0883 253.871 44.1053 251.854 45.3155Z" fill="#5793CE"/>
<path d="M190.403 167.681L276.596 117.928C279.016 116.449 281.033 112.684 281.033 109.322V93.4548C281.033 90.0931 279.016 88.6139 276.596 90.0931L190.403 139.846C187.983 141.325 185.966 145.09 185.966 148.452V164.319C185.966 167.546 187.848 169.025 190.403 167.681Z" fill="#5793CE"/>
<path d="M196.858 153.696L200.891 151.41C201.429 151.141 201.833 150.2 201.833 149.528V145.225C201.833 144.552 201.429 144.149 200.891 144.418L196.858 146.704C196.32 146.973 195.916 147.914 195.916 148.586V152.889C195.916 153.696 196.32 153.965 196.858 153.696Z" fill="#173D7A"/>
<path d="M210.439 145.897L214.472 143.611C215.01 143.342 215.414 142.401 215.414 141.728V137.426C215.414 136.753 215.01 136.35 214.472 136.619L210.439 138.905C209.901 139.174 209.497 140.115 209.497 140.787V145.09C209.497 145.762 209.901 146.166 210.439 145.897Z" fill="#173D7A"/>
<path d="M190.403 224.695L276.596 174.942C279.016 173.463 281.033 169.698 281.033 166.336V150.469C281.033 147.107 279.016 145.628 276.596 147.107L190.403 196.86C187.983 198.339 185.966 202.104 185.966 205.466V221.333C185.966 224.56 187.848 226.174 190.403 224.695Z" fill="#5793CE"/>
<path d="M196.858 210.71L200.891 208.424C201.429 208.155 201.833 207.214 201.833 206.542V202.239C201.833 201.566 201.429 201.163 200.891 201.432L196.858 203.718C196.32 203.987 195.916 204.928 195.916 205.6V209.903C195.916 210.71 196.32 211.114 196.858 210.71Z" fill="#173D7A"/>
<path d="M210.439 202.911L214.472 200.625C215.01 200.356 215.414 199.415 215.414 198.743V194.44C215.414 193.767 215.01 193.364 214.472 193.633L210.439 195.919C209.901 196.188 209.497 197.129 209.497 197.801V202.104C209.497 202.911 209.901 203.18 210.439 202.911Z" fill="#D4ECFF"/>
<path d="M190.403 281.843L276.596 232.09C279.016 230.611 281.033 226.846 281.033 223.485V207.617C281.033 204.256 279.016 202.777 276.596 204.256L190.403 254.009C187.983 255.488 185.966 259.253 185.966 262.615V278.347C185.966 281.709 187.848 283.188 190.403 281.843Z" fill="#5793CE"/>
<path d="M196.858 267.859L200.891 265.573C201.429 265.304 201.833 264.363 201.833 263.69V259.387C201.833 258.715 201.429 258.312 200.891 258.581L196.858 260.866C196.32 261.135 195.916 262.077 195.916 262.749V267.052C195.916 267.859 196.32 268.128 196.858 267.859Z" fill="#D4ECFF"/>
<path d="M210.439 260.06L214.472 257.774C215.01 257.505 215.414 256.564 215.414 255.891V251.454C215.414 250.781 215.01 250.378 214.472 250.647L210.439 252.933C209.901 253.202 209.497 254.143 209.497 254.815V259.118C209.497 259.925 209.901 260.329 210.439 260.06Z" fill="#173D7A"/>
<path d="M190.403 338.858L276.596 289.105C279.016 287.625 281.033 283.86 281.033 280.499V264.632C281.033 261.27 279.016 259.791 276.596 261.27L190.403 311.023C187.983 312.502 185.966 316.267 185.966 319.629V335.496C185.966 338.858 187.848 340.337 190.403 338.858Z" fill="#5793CE"/>
<path d="M196.858 324.873L200.891 322.587C201.429 322.318 201.833 321.377 201.833 320.704V316.401C201.833 315.729 201.429 315.326 200.891 315.595L196.858 317.881C196.32 318.15 195.916 319.091 195.916 319.763V324.066C195.916 324.873 196.32 325.276 196.858 324.873Z" fill="#D4ECFF"/>
<path d="M210.439 317.074L214.472 314.788C215.01 314.519 215.414 313.578 215.414 312.905V308.602C215.414 307.93 215.01 307.527 214.472 307.796L210.439 310.082C209.901 310.35 209.497 311.292 209.497 311.964V316.267C209.497 317.074 209.901 317.477 210.439 317.074Z" fill="#D4ECFF"/>
<path d="M147.778 167.681L103.538 142.401C101.118 140.922 99.1011 137.157 99.1011 133.795V117.928C99.1011 114.566 101.118 113.087 103.538 114.566L147.778 139.846C150.198 141.325 152.215 145.09 152.215 148.452V164.319C152.215 167.546 150.198 169.025 147.778 167.681Z" fill="#173D7A"/>
<path d="M147.778 224.695L103.538 199.415C101.118 197.936 99.1011 194.171 99.1011 190.809V174.942C99.1011 171.58 101.118 170.101 103.538 171.58L147.778 196.86C150.198 198.339 152.215 202.104 152.215 205.466V221.333C152.215 224.56 150.198 226.174 147.778 224.695Z" fill="#173D7A"/>
<path d="M147.778 281.843L103.538 256.564C101.118 255.084 99.1011 251.319 99.1011 247.958V232.09C99.1011 228.729 101.118 227.25 103.538 228.729L147.778 254.009C150.198 255.488 152.215 259.253 152.215 262.615V278.347C152.215 281.709 150.198 283.188 147.778 281.843Z" fill="#173D7A"/>
<path d="M147.778 338.857L103.538 313.578C101.118 312.098 99.1011 308.333 99.1011 304.972V289.105C99.1011 285.743 101.118 284.264 103.538 285.743L147.778 311.023C150.198 312.502 152.215 316.267 152.215 319.629V335.496C152.215 338.857 150.198 340.337 147.778 338.857Z" fill="#173D7A"/>
<path opacity="0.5" d="M205.867 134.467L249.837 103.674C265.569 92.6479 281.436 82.9663 297.169 74.6293V300.803C297.303 302.417 296.362 304.03 294.345 305.241L259.653 325.007C204.119 314.653 206.001 252.798 206.001 252.798V134.467H205.867Z" fill="#173D7A"/>
<path d="M232.894 263.69V145.225L276.864 114.432C299.051 98.8334 321.373 85.9246 343.559 75.8395L387.53 55.9384L405.279 66.2923L385.647 80.5459V173.194C385.647 173.194 388.067 248.764 308.329 336.034C298.11 336.706 289.235 335.899 281.436 334.151L282.781 338.454L267.183 329.31C265.838 328.638 264.494 327.831 263.283 327.024L263.014 326.89C231.55 306.451 232.894 263.69 232.894 263.69Z" fill="#C1424C"/>
<path d="M310.212 93.0513C321.373 86.5969 332.399 80.9493 343.559 75.8395L387.53 55.9384L405.279 66.2923L385.647 80.5459V136.484L310.212 93.0513Z" fill="#F4767F"/>
<path d="M325.541 84.7144L362.653 106.095L332.13 123.71L295.017 102.33C305.237 95.8751 315.456 89.9586 325.541 84.7144Z" fill="#A83846"/>
<path d="M250.644 274.044V155.579L294.614 124.786C316.666 109.322 339.122 96.413 361.309 86.328L405.279 66.2924V184.758C405.279 184.758 407.699 260.329 327.961 347.598C248.223 352.439 250.644 274.044 250.644 274.044Z" fill="#EF5F65"/>
<path d="M281.167 320.704C290.714 329.983 304.43 334.689 321.776 334.42C392.639 254.547 391.967 185.699 391.967 185.161V86.8658L366.687 98.2956C345.307 107.977 323.524 120.617 302.009 135.677L263.687 162.571V274.044V274.448C263.821 274.717 263.418 303.493 281.167 320.704Z" fill="#C1424C"/>
<path d="M321.104 217.434C321.104 219.585 319.49 222.409 317.607 223.485C315.725 224.56 314.111 223.753 314.111 221.468C314.111 219.316 315.725 216.492 317.607 215.417C319.624 214.341 321.104 215.148 321.104 217.434Z" fill="white"/>
<path d="M332.264 210.979C332.264 213.131 330.651 215.954 328.768 217.03C326.886 218.106 325.272 217.299 325.272 215.013C325.272 212.862 326.886 210.038 328.768 208.962C330.785 207.886 332.264 208.693 332.264 210.979Z" fill="white"/>
<path d="M343.425 204.525C343.425 206.676 341.811 209.5 339.929 210.576C338.046 211.651 336.433 210.845 336.433 208.559C336.433 206.407 338.046 203.583 339.929 202.508C341.946 201.432 343.425 202.239 343.425 204.525Z" fill="white"/>
<path d="M446.022 339.261L473.05 323.394C475.335 322.049 475.067 319.763 472.377 318.284L446.56 303.224C443.871 301.745 439.971 301.476 437.685 302.82L410.523 318.553C408.237 319.898 408.506 322.184 411.195 323.663L437.013 338.858C439.702 340.337 443.602 340.606 446.022 339.261Z" fill="#B2D3EA"/>
<path d="M400.573 288.97V282.112H436.744H436.475C439.299 280.499 444.409 280.633 447.636 282.516L446.56 282.112H482.866V289.374C483 290.449 482.328 291.525 480.983 292.332L446.964 312.099C444.14 313.712 439.03 313.578 435.803 311.695L403.397 292.735C401.38 291.794 400.573 290.315 400.573 288.97Z" fill="#173D7A"/>
<path d="M441.853 281.037C444.005 281.037 446.156 281.574 447.904 282.65L446.828 282.247H483.134V289.508C483.269 290.584 482.596 291.659 481.252 292.466L447.232 312.233C445.887 313.04 444.005 313.443 441.988 313.309L441.853 281.037Z" fill="#396CAA"/>
<path d="M478.832 282.112H483V289.374C483.134 290.449 482.462 291.525 481.117 292.332L478.966 293.542V282.112H478.832Z" fill="#B2D3EA"/>
<path d="M446.291 312.636C443.871 313.712 440.24 313.578 437.282 312.502V302.955H446.291V312.636Z" fill="#274F89"/>
<path d="M446.964 304.972L481.118 285.205C483.942 283.592 483.673 280.633 480.311 278.751L447.905 259.791C444.543 257.908 439.568 257.639 436.744 259.387L402.725 279.154C399.901 280.768 400.17 283.726 403.531 285.609L435.938 304.568C439.165 306.451 444.14 306.72 446.964 304.972Z" fill="#D4ECFF"/>
<path d="M447.501 277.271C449.249 278.347 452.207 278.213 453.955 277.271C455.704 276.196 455.704 274.582 453.955 273.506C452.207 272.431 449.249 272.565 447.501 273.506C445.753 274.582 445.753 276.196 447.501 277.271Z" fill="#396CAA"/>
<path d="M437.282 283.322C439.03 284.398 441.988 284.264 443.736 283.322C445.484 282.247 445.484 280.633 443.736 279.557C441.988 278.482 439.03 278.616 437.282 279.557C435.534 280.633 435.534 282.247 437.282 283.322Z" fill="#396CAA"/>
<path d="M426.928 289.239C428.676 290.315 431.634 290.18 433.382 289.239C435.13 288.163 435.13 286.55 433.382 285.474C431.634 284.398 428.676 284.533 426.928 285.474C425.18 286.55 425.18 288.298 426.928 289.239Z" fill="#396CAA"/>
<path d="M74.3595 201.297C74.3595 201.297 75.0318 215.954 76.242 225.905C77.4522 235.856 101.118 218.375 101.118 218.375V207.08L74.3595 201.297Z" fill="#AA3A47"/>
<path d="M86.9993 383.904C87.4027 384.845 93.4536 392.241 99.6389 394.124C102.328 394.93 104.076 395.065 105.286 394.93C106.497 394.796 107.169 393.586 106.766 392.51C105.69 389.552 102.732 383.366 94.9327 379.467C84.7134 374.357 86.9993 383.904 86.9993 383.904Z" fill="#173D7A"/>
<path d="M84.9822 386.862C84.9822 386.862 87.2681 392.241 88.0749 396.813C88.4783 399.637 86.9992 403.133 85.789 405.553C84.9822 407.032 83.0997 407.436 81.755 406.226C79.7381 404.343 77.1832 401.25 76.7798 396.678C76.1075 389.014 76.7798 387.669 76.7798 387.669L84.9822 386.862Z" fill="#173D7A"/>
<path d="M70.191 294.08C70.191 294.08 69.3842 303.762 70.191 314.519C70.9978 325.276 73.8216 375.298 74.3594 387.4C74.3594 387.4 74.0905 391.031 81.2172 390.224C88.3439 389.417 87.6715 385.383 87.6715 385.383C87.6715 385.383 97.622 385.249 97.8909 379.467C98.1599 373.685 108.11 309.678 108.11 286.684L70.191 294.08Z" fill="#FDD762"/>
<path d="M104.614 244.058L110.396 279.02H115.506L115.103 246.882L104.614 244.058Z" fill="#FFC2B0"/>
<path d="M102.194 213.131C102.194 213.131 109.858 212.996 112.548 224.022C115.237 235.183 117.388 249.168 114.968 250.244C107.976 253.74 103.538 249.706 103.538 249.706L102.194 213.131Z" fill="#C1424C"/>
<path d="M104.614 213.534C103.27 212.996 101.79 212.862 100.446 213.265C93.8569 215.148 69.1153 222.409 65.0814 225.905C60.3751 229.939 72.208 252.53 71.9391 259.925C71.8046 267.321 70.9978 276.061 70.3255 284.129C69.6532 292.197 68.8464 296.635 75.4352 299.996C82.024 303.358 93.3191 303.627 101.656 297.173C110.127 290.718 108.514 286.415 108.245 281.709C107.841 277.003 105.018 256.832 105.287 251.185C105.287 251.185 108.245 249.033 110.396 245.268C112.548 241.503 108.648 234.645 107.035 230.208C105.421 225.771 107.976 220.661 107.438 216.896C107.169 215.148 105.959 214.206 104.614 213.534Z" fill="#EF5F65"/>
<path d="M86.3996 215.188C91.5559 214.528 96.1568 217.276 96.6759 221.328C97.195 225.379 93.4359 229.199 88.2795 229.86C83.1232 230.521 78.5223 227.772 78.0032 223.72C77.4841 219.669 81.2432 215.849 86.3996 215.188Z" fill="white"/>
<path d="M86.6558 217.189C90.3389 216.717 93.6307 218.723 94.0082 221.669C94.3858 224.616 91.7061 227.387 88.0231 227.859C84.34 228.331 81.0482 226.325 80.6706 223.378C80.2931 220.432 82.9727 217.661 86.6558 217.189Z" fill="#FFC2B0"/>
<path d="M90.3608 212.055C90.3608 212.055 85.9235 208.424 84.9822 210.307C84.041 212.189 83.3687 220.123 83.3687 220.123L92.2433 222.543L90.8987 214.475C90.8987 214.341 92.7812 212.862 90.3608 212.055Z" fill="#FFC2B0"/>
<path d="M91.0332 215.685C83.7553 215.685 77.8555 209.786 77.8555 202.508C77.8555 195.23 83.7553 189.33 91.0332 189.33C98.311 189.33 104.211 195.23 104.211 202.508C104.211 209.786 98.311 215.685 91.0332 215.685Z" fill="#FFC2B0"/>
<path d="M84.4444 212.593C84.3099 212.996 84.3099 213.4 84.1754 213.937C85.1167 218.509 91.9745 220.526 91.9745 220.526L90.8987 214.475C90.8987 214.475 91.7055 213.803 91.4366 212.996C88.8817 212.055 85.3856 211.383 84.4444 212.593Z" fill="#EA9C92"/>
<path d="M91.0332 215.685C83.7553 215.685 77.8555 209.786 77.8555 202.508C77.8555 195.23 83.7553 189.33 91.0332 189.33C98.311 189.33 104.211 195.23 104.211 202.508C104.211 209.786 98.311 215.685 91.0332 215.685Z" fill="#FFC2B0"/>
<path d="M58.3581 258.581L59.8372 293.946L65.0813 294.483L68.443 262.615L58.3581 258.581Z" fill="#FFC2B0"/>
<path d="M75.4351 255.622C73.6871 248.092 70.3254 231.418 70.3254 231.418L68.8463 248.092C70.4599 253.067 71.939 257.505 71.939 260.194C71.8046 264.497 71.5357 269.338 71.1323 274.179C71.1323 274.044 77.1832 263.152 75.4351 255.622Z" fill="#C1424C"/>
<path d="M66.0226 225.233C66.0226 225.233 61.8542 226.846 59.5683 239.486C57.2824 252.261 55.5343 264.901 59.7027 266.514C63.8712 268.128 67.3672 269.338 68.5774 265.976C69.7876 262.615 70.5944 246.21 70.7289 240.293C70.8633 234.511 70.9978 226.443 66.0226 225.233Z" fill="#EF5F65"/>
<path d="M87.6716 385.249C87.6716 385.249 88.8818 385.249 90.4953 384.98L92.3778 307.123L87.6716 385.249Z" fill="#D8892B"/>
<path d="M80.1415 343.16L77.4522 339.53L48.5421 322.721C47.6008 322.184 46.9285 320.704 46.9285 319.494V295.828L45.3149 293.677L46.9285 292.735C47.1974 292.601 47.6008 292.601 48.0042 292.735L80.6793 311.964C81.6206 312.502 82.2929 313.981 82.2929 315.191V341.009C82.2929 341.681 82.024 342.219 81.6206 342.354L80.1415 343.16Z" fill="#A83846"/>
<path d="M60.1061 329.579L58.0891 328.369L46.794 308.737V295.828L45.1804 293.677L46.794 292.735C47.0629 292.601 47.4663 292.601 47.8697 292.735L80.6793 311.964C81.2172 312.233 81.6206 312.771 81.8896 313.443L60.1061 329.579Z" fill="#EF5F65"/>
<path d="M45.8527 294.752L45.1804 293.811L46.794 292.87C47.063 292.735 47.4664 292.735 47.8698 292.87L48.4076 293.139L45.8527 294.752Z" fill="#8C3141"/>
<path d="M80.9483 312.099C81.6206 312.636 82.2929 313.847 82.2929 314.922L79.0657 316.805L77.5866 314.116L80.9483 312.099Z" fill="#8C3141"/>
<path d="M79.0658 312.771L46.2562 293.811C45.315 293.273 44.5081 293.811 44.5081 295.021V320.839C44.5081 322.049 45.315 323.528 46.1217 324.066L78.9313 343.026C79.8726 343.564 80.6793 343.026 80.6793 341.816V315.998C80.8138 314.788 80.007 313.309 79.0658 312.771Z" fill="#C1424C"/>
<path d="M59.9717 293.677C59.9717 293.677 58.627 301.879 58.7615 304.568C59.0304 307.258 60.3751 311.561 61.4508 311.426C62.5265 311.292 61.4508 300.803 63.3333 301.879C65.2158 302.955 65.4848 304.703 66.2916 304.031C67.0984 303.358 64.8124 294.349 65.4848 290.449C66.0226 286.684 59.9717 293.677 59.9717 293.677Z" fill="#FFC2B0"/>
<path d="M115.506 279.02C115.506 279.02 116.851 287.222 116.716 289.911C116.447 292.601 115.103 296.904 114.027 296.769C112.951 296.635 114.027 286.146 112.144 287.222C110.262 288.298 109.993 290.046 109.186 289.374C108.379 288.701 110.665 279.692 109.993 275.792C109.455 271.893 115.506 279.02 115.506 279.02Z" fill="#FFC2B0"/>
<path d="M96.1429 203.718C102.732 206.138 104.076 204.659 104.076 204.525C104.076 204.121 104.211 203.718 104.211 203.315C104.345 201.835 104.076 200.491 103.807 199.146L86.5959 196.86C86.5959 196.726 89.2851 201.298 96.1429 203.718Z" fill="#EA9C92"/>
<path d="M104.749 190.137C103.135 188.792 97.4875 182.203 87.4026 183.682C81.0827 184.624 75.7041 188.926 74.6284 198.743C73.8216 205.332 76.2419 211.92 80.6793 216.761C80.9482 216.627 81.2172 216.492 81.3516 216.358C83.9065 214.744 84.1754 213.803 84.1754 213.803L84.7133 208.828C84.7133 208.155 84.1754 207.483 83.5031 207.483C82.9652 207.483 82.2929 207.214 81.6206 206.407C80.1415 204.525 80.8138 201.566 83.772 201.432C85.2512 201.432 85.9235 200.491 86.0579 199.818C86.1924 199.146 86.9992 198.743 87.6715 199.012C91.0332 200.222 99.1011 202.777 104.345 201.297C111.068 199.28 106.228 191.481 104.749 190.137Z" fill="#C1424C"/>
<path d="M97.2186 209.634L101.253 208.559C101.253 208.559 99.37 211.651 96.5463 212.324C93.7225 213.131 93.3191 210.71 93.3191 210.71L97.2186 209.634Z" fill="white"/>
<path d="M66.8294 303.896L63.3333 301.879L64.6779 304.03L66.426 304.703L66.8294 303.896Z" fill="#8C3141"/>
<path d="M367.36 347.06C381.613 338.858 404.607 338.858 418.726 347.06C432.979 355.263 432.979 368.575 418.726 376.777C404.472 384.98 381.479 384.98 367.36 376.777C353.241 368.575 353.241 355.263 367.36 347.06ZM393.984 362.12C397.614 364.272 403.531 364.272 407.161 362.12C410.792 359.969 410.792 356.607 407.161 354.456C403.531 352.304 397.614 352.304 393.984 354.456C390.353 356.607 390.353 360.103 393.984 362.12Z" fill="#B2D3EA"/>
<path d="M359.695 370.188C361.578 372.071 363.998 373.819 366.687 375.433C369.511 377.046 372.604 378.391 375.831 379.467L368.839 383.501L358.351 384.039L353.106 386.997L355.258 388.207L351.358 390.493L347.19 388.073L340.332 391.972L347.19 396.006L342.08 398.964L337.105 401.788L331.054 398.292L322.045 403.536L325.541 405.553L319.759 408.915L316.263 406.898L313.574 408.512L316.263 414.025L307.388 419.134H274.982L359.695 370.188Z" fill="#B2D3EA"/>
<path d="M356.737 359.028V349.211L359.695 350.825C361.444 348.405 363.998 346.119 367.494 344.236C381.748 336.034 404.741 336.034 418.86 344.236C422.76 346.522 425.584 349.211 427.332 352.035L429.483 349.211V359.028C429.483 364.406 425.987 369.785 418.86 373.953C404.607 382.156 381.613 382.156 367.494 373.953C360.233 369.785 356.737 364.406 356.737 359.028ZM394.119 352.573C397.749 354.725 403.666 354.725 407.296 352.573C410.927 350.422 410.927 347.06 407.296 344.908C403.666 342.757 397.749 342.757 394.119 344.908C390.488 347.06 390.488 350.422 394.119 352.573Z" fill="#E8A200"/>
<path d="M396.135 366.692L411.868 359.028L425.852 349.884C426.39 350.556 426.928 351.363 427.466 352.035L429.617 349.211V359.028C429.617 364.406 426.121 369.785 418.994 373.953C412.675 377.584 404.607 379.601 396.27 380.004V366.692H396.135Z" fill="#FDD762"/>
<path d="M367.361 334.286C381.614 326.083 404.608 326.083 418.727 334.286C432.98 342.488 432.98 355.8 418.727 364.003C404.474 372.205 381.48 372.205 367.361 364.003C353.242 355.8 353.242 342.488 367.361 334.286ZM393.985 349.48C397.616 351.632 403.532 351.632 407.163 349.48C410.793 347.329 410.793 343.967 407.163 341.816C403.532 339.664 397.616 339.664 393.985 341.816C390.355 343.967 390.355 347.329 393.985 349.48Z" fill="#FDD762"/>
<path d="M386.857 339.53H406.624C408.372 339.933 410.12 340.471 411.868 341.009V357.683H386.857V339.53ZM394.118 352.573C397.749 354.725 403.665 354.725 407.296 352.573C410.927 350.422 410.927 347.06 407.296 344.908C403.665 342.757 397.749 342.757 394.118 344.908C390.488 347.06 390.488 350.422 394.118 352.573Z" fill="#E8A200"/>
<path d="M370.452 336.034C382.958 328.772 403.262 328.772 415.767 336.034C428.273 343.295 428.273 354.994 415.767 362.255C403.262 369.516 382.958 369.516 370.452 362.255C357.947 354.994 357.947 343.295 370.452 336.034ZM393.984 349.48C397.614 351.632 403.531 351.632 407.161 349.48C410.792 347.329 410.792 343.967 407.161 341.816C403.531 339.664 397.614 339.664 393.984 341.816C390.353 343.967 390.353 347.329 393.984 349.48Z" fill="#F2B42A"/>
<path d="M415.767 338.723C403.262 331.462 382.958 331.462 370.452 338.723C364.805 341.95 361.712 346.119 361.174 350.422C360.502 345.312 363.595 339.933 370.452 336.034C382.958 328.772 403.262 328.772 415.767 336.034C422.625 339.933 425.718 345.312 425.045 350.422C424.508 346.253 421.415 342.085 415.767 338.723Z" fill="#E8A200"/>
<path d="M359.695 367.23C361.578 369.113 363.998 370.861 366.687 372.474C369.511 374.088 372.604 375.433 375.831 376.508L368.839 380.542L358.351 381.08L353.106 384.039L355.258 385.249L351.358 387.535L347.19 385.114L340.332 389.014L347.19 393.048L342.08 396.006L337.105 398.83L331.054 395.334L322.045 400.578L325.541 402.595L319.759 405.957L316.263 403.94L313.574 405.553L316.263 411.066L307.388 416.176H274.982L359.695 367.23Z" fill="#F2B42A"/>
<path d="M359.695 360.103C361.578 361.986 363.998 363.734 366.687 365.348C369.511 366.961 372.604 368.306 375.831 369.382L368.839 373.416L358.351 373.953L353.106 376.912L355.258 378.122L351.358 380.408L347.19 377.987L340.332 381.887L347.19 385.921L342.08 388.879L337.105 391.703L331.054 388.207L322.045 393.451L325.541 395.468L319.759 398.83L316.263 396.813L313.574 398.426L316.263 403.94L307.388 409.049H274.982L359.695 360.103Z" fill="#FDD762"/>
<path d="M275.116 408.915H307.523V416.042H275.116V408.915Z" fill="#E8A200"/>
<path d="M319.759 405.822V398.83L316.263 396.813V403.94L319.759 405.822Z" fill="#E8A200"/>
<path d="M325.541 395.468V402.461L319.759 405.822V398.83L325.541 395.468Z" fill="#EEAD00"/>
<path d="M331.188 388.207V395.334L337.374 398.83V391.703L331.188 388.207Z" fill="#E8A200"/>
<path d="M347.324 385.921V393.048L337.374 398.83V391.703L347.324 385.921Z" fill="#EEAD00"/>
<path d="M316.263 403.94V410.932L307.523 416.042V408.915L316.263 403.94Z" fill="#EEAD00"/>
<path d="M351.493 380.408V387.535L355.392 385.249V378.256L351.493 380.408Z" fill="#EEAD00"/>
<path d="M368.973 373.416V380.542L358.485 381.08V373.953L368.973 373.416Z" fill="#E8A200"/>
<path d="M297.169 403.94L359.157 368.037L355.661 366.154L290.445 403.805L297.169 403.94Z" fill="#E8A200"/>
<path d="M355.661 367.768L293.404 403.805H290.445L355.661 366.154L359.157 368.037L357.678 368.978L355.661 367.768Z" fill="#F2B42A"/>
<path d="M368.973 380.542V373.416L375.831 369.382V376.508L368.973 380.542Z" fill="#E8A200"/>
<path d="M347.19 377.987V385.114L351.493 387.535V380.408L347.19 377.987Z" fill="#E8A200"/>
<path d="M370.452 336.034C377.445 332 386.992 330.252 396.135 330.655V333.344C386.992 332.806 377.445 334.555 370.452 338.723C364.805 341.95 361.712 346.119 361.174 350.422C360.502 345.312 363.595 340.068 370.452 336.034Z" fill="#FDD762"/>
<path d="M45.4494 172.656L73.6871 156.251C76.1075 154.906 75.7041 152.486 73.0148 150.872L46.1218 135.14C43.4324 133.526 39.264 133.391 36.8437 134.736L8.60593 151.141C6.18555 152.486 6.45449 154.906 9.27826 156.52L36.1713 172.253C38.8606 173.866 43.0291 174.001 45.4494 172.656Z" fill="#B2D3EA"/>
<path d="M6.86646e-05 121.693V114.835H36.1713H35.9024C38.7261 113.221 43.8358 113.356 47.063 115.238L45.9873 114.835H82.293V122.096C82.4274 123.172 81.7551 124.248 80.4104 125.055L46.3907 144.821C43.5669 146.435 38.4572 146.3 35.23 144.418L2.82385 125.458C0.80687 124.517 -0.134399 123.038 6.86646e-05 121.693Z" fill="#C1424C"/>
<path d="M41.1465 113.759C43.298 113.759 45.4494 114.297 47.1975 115.373L46.1218 114.969H82.4274V122.231C82.5619 123.306 81.8896 124.382 80.5449 125.189L46.5252 144.956C45.1805 145.763 43.298 146.166 41.281 146.031L41.1465 113.759Z" fill="#C1424C"/>
<path d="M78.259 114.835H82.4274V122.096C82.5619 123.172 81.8896 124.248 80.5449 125.055L78.259 126.399V114.835Z" fill="#A83846"/>
<path d="M45.5839 145.359C43.1635 146.435 39.5329 146.3 36.5747 145.225V135.677H45.5839V145.359Z" fill="#A83846"/>
<path d="M46.3907 137.694L80.4105 117.928C83.2343 116.314 82.9653 113.356 79.6037 111.473L47.1975 92.5135C43.8358 90.6309 38.8606 90.362 36.0368 92.1101L2.01704 111.877C-0.806732 113.49 -0.537796 116.449 2.82384 118.331L35.23 137.291C38.4572 139.174 43.4324 139.443 46.3907 137.694Z" fill="#EF5F65"/>
<path d="M48.9455 109.86C50.6936 110.935 53.6518 110.801 55.3999 109.86C57.148 108.784 57.148 107.17 55.3999 106.095C53.6518 105.019 50.6936 105.153 48.9455 106.095C47.1975 107.17 47.1975 108.784 48.9455 109.86Z" fill="white"/>
<path d="M38.7262 115.911C40.4742 116.986 43.4324 116.852 45.1805 115.911C46.9285 114.835 46.9285 113.221 45.1805 112.146C43.4324 111.07 40.4742 111.204 38.7262 112.146C36.8436 113.221 36.8436 114.835 38.7262 115.911Z" fill="white"/>
<path d="M28.3723 121.827C30.1203 122.903 33.0786 122.769 34.8266 121.827C36.5747 120.752 36.5747 119.138 34.8266 118.062C33.0786 116.987 30.1203 117.121 28.3723 118.062C26.6242 119.138 26.6242 120.886 28.3723 121.827Z" fill="white"/>
</svg>
