<svg width="536" height="358" viewBox="0 0 536 358" fill="none" xmlns="http://www.w3.org/2000/svg">
<path opacity="0.4" d="M320.506 161.733C319.125 161.733 318.006 160.613 318.006 159.233C318.006 157.852 319.125 156.732 320.506 156.732C321.887 156.732 323.006 157.852 323.006 159.233C323.006 160.613 321.887 161.733 320.506 161.733Z" fill="#172F78"/>
<path opacity="0.6" d="M468.805 70.1624C466.82 70.1624 465.211 68.5533 465.211 66.5683C465.211 64.5834 466.82 62.9742 468.805 62.9742C470.79 62.9742 472.399 64.5834 472.399 66.5683C472.399 68.5533 470.79 70.1624 468.805 70.1624Z" fill="#172F78"/>
<path opacity="0.8" d="M468.805 68.131C467.942 68.131 467.242 67.4313 467.242 66.5683C467.242 65.7053 467.942 65.0057 468.805 65.0057C469.668 65.0057 470.367 65.7053 470.367 66.5683C470.367 67.4313 469.668 68.131 468.805 68.131Z" fill="#172F78"/>
<path opacity="0.4" d="M291.909 132.668C286.472 132.668 282.064 128.26 282.064 122.823C282.064 117.386 286.472 112.979 291.909 112.979C297.346 112.979 301.754 117.386 301.754 122.823C301.754 128.26 297.346 132.668 291.909 132.668Z" fill="#172F78"/>
<path opacity="0.8" d="M291.909 126.886C289.665 126.886 287.846 125.067 287.846 122.823C287.846 120.579 289.665 118.76 291.909 118.76C294.153 118.76 295.972 120.579 295.972 122.823C295.972 125.067 294.153 126.886 291.909 126.886Z" fill="#172F78"/>
<path d="M270.344 193.611L292.378 122.354L111.107 147.825L111.263 148.607L291.284 123.292L269.563 193.454L270.344 193.611Z" fill="#172F78"/>
<path d="M72.821 216.894H73.6023V233.458H72.821V216.894Z" fill="#172F78"/>
<path d="M72.821 237.364H73.6024V242.677H72.821V237.364Z" fill="#03A7D3"/>
<path d="M476.774 204.549H477.556V221.113H476.774V204.549Z" fill="#03A7D3"/>
<path d="M476.774 224.863H477.556V229.551H476.774V224.863Z" fill="#172F78"/>
<path d="M476.774 233.614H477.556V238.302H476.774V233.614Z" fill="#172F78"/>
<path d="M363.636 0H364.417V16.5639H363.636V0Z" fill="#172F78"/>
<path d="M363.636 20.3143H364.417V25.0022H363.636V20.3143Z" fill="#03A7D3"/>
<path d="M363.636 28.9088H364.417V33.5967H363.636V28.9088Z" fill="#03A7D3"/>
<path d="M363.636 37.6595H364.417V51.0982H363.636V37.6595Z" fill="#03A7D3"/>
<path d="M175.177 348.312H175.958V353.625H175.177V348.312Z" fill="#172F78"/>
<path d="M175.177 306.433H175.958V323.153H175.177V306.433Z" fill="#172F78"/>
<path d="M60.9446 141.575H61.726V146.888H60.9446V141.575Z" fill="#172F78"/>
<path d="M60.9446 121.261H61.726V137.825H60.9446V121.261Z" fill="#03A7D3"/>
<path d="M60.9446 99.5399H61.726V116.26H60.9446V99.5399Z" fill="#172F78"/>
<path d="M60.9445 74.8503H61.7259V91.5705H60.9445V74.8503Z" fill="#172F78"/>
<path opacity="0.4" d="M449.896 60.0053C444.804 60.0053 440.676 55.8775 440.676 50.7857C440.676 45.6939 444.804 41.5661 449.896 41.5661C454.988 41.5661 459.116 45.6939 459.116 50.7857C459.116 55.8775 454.988 60.0053 449.896 60.0053Z" fill="#03A7D3"/>
<path opacity="0.8" d="M449.896 55.3173C447.393 55.3173 445.364 53.2884 445.364 50.7857C445.364 48.2829 447.393 46.254 449.896 46.254C452.399 46.254 454.428 48.2829 454.428 50.7857C454.428 53.2884 452.399 55.3173 449.896 55.3173Z" fill="#03A7D3"/>
<path opacity="0.4" d="M388.327 326.591C384.874 326.591 382.076 323.793 382.076 320.34C382.076 316.888 384.874 314.09 388.327 314.09C391.779 314.09 394.577 316.888 394.577 320.34C394.577 323.793 391.779 326.591 388.327 326.591Z" fill="#03A7D3"/>
<path opacity="0.8" d="M388.327 323.309C386.687 323.309 385.357 321.98 385.357 320.34C385.357 318.701 386.687 317.371 388.327 317.371C389.966 317.371 391.296 318.701 391.296 320.34C391.296 321.98 389.966 323.309 388.327 323.309Z" fill="#03A7D3"/>
<path opacity="0.4" d="M161.738 252.522C158.199 252.522 155.331 249.654 155.331 246.115C155.331 242.577 158.199 239.708 161.738 239.708C165.276 239.708 168.145 242.577 168.145 246.115C168.145 249.654 165.276 252.522 161.738 252.522Z" fill="#03A7D3"/>
<path opacity="0.8" d="M161.738 249.24C160.012 249.24 158.612 247.841 158.612 246.115C158.612 244.389 160.012 242.99 161.738 242.99C163.464 242.99 164.863 244.389 164.863 246.115C164.863 247.841 163.464 249.24 161.738 249.24Z" fill="#03A7D3"/>
<path opacity="0.4" d="M330.507 113.291C327.746 113.291 325.507 111.052 325.507 108.291C325.507 105.529 327.746 103.29 330.507 103.29C333.269 103.29 335.508 105.529 335.508 108.291C335.508 111.052 333.269 113.291 330.507 113.291Z" fill="#03A7D3"/>
<path opacity="0.8" d="M330.507 110.791C329.126 110.791 328.007 109.672 328.007 108.291C328.007 106.91 329.126 105.79 330.507 105.79C331.888 105.79 333.008 106.91 333.008 108.291C333.008 109.672 331.888 110.791 330.507 110.791Z" fill="#03A7D3"/>
<path opacity="0.4" d="M142.36 312.84C140.893 312.84 139.704 311.65 139.704 310.183C139.704 308.716 140.893 307.527 142.36 307.527C143.828 307.527 145.017 308.716 145.017 310.183C145.017 311.65 143.828 312.84 142.36 312.84Z" fill="#03A7D3"/>
<path opacity="0.4" d="M162.988 162.514C162.125 162.514 161.425 161.815 161.425 160.952C161.425 160.089 162.125 159.389 162.988 159.389C163.851 159.389 164.55 160.089 164.55 160.952C164.55 161.815 163.851 162.514 162.988 162.514Z" fill="#03A7D3"/>
<path opacity="0.4" d="M369.418 284.4C368.555 284.4 367.855 283.7 367.855 282.837C367.855 281.974 368.555 281.275 369.418 281.275C370.281 281.275 370.981 281.974 370.981 282.837C370.981 283.7 370.281 284.4 369.418 284.4Z" fill="#03A7D3"/>
<path d="M275.813 236.583C278.939 236.583 281.908 235.958 284.252 234.552L341.29 201.58C343.634 200.174 344.884 198.299 344.884 196.423C344.884 194.392 343.634 192.517 341.29 191.267L284.564 158.295C279.876 155.639 272.219 155.639 267.531 158.295L210.493 191.267C208.149 192.673 206.899 194.548 206.899 196.423C206.899 198.455 208.149 200.33 210.493 201.58L267.219 234.552C269.563 235.958 272.688 236.583 275.813 236.583ZM276.126 157.357C278.939 157.357 281.908 157.983 284.096 159.233L340.665 192.204C342.696 193.298 343.79 194.861 343.79 196.423C343.79 197.986 342.696 199.549 340.665 200.642L283.627 233.614C279.251 236.114 272.063 236.114 267.687 233.614L210.962 200.642C208.931 199.549 207.837 197.986 207.837 196.423C207.837 194.861 208.931 193.298 210.962 192.204L268 159.233C270.344 157.983 273.157 157.357 276.126 157.357Z" fill="#03A7D3"/>
<path d="M207.212 178.453V151.107L241.747 155.639L267.531 140.637C272.063 137.981 279.408 137.981 283.939 140.637L288.002 143.137L344.103 150.638V178.297V178.453C344.103 180.172 342.852 181.735 340.665 182.985L283.627 215.956C279.095 218.613 271.75 218.613 267.219 215.956L210.493 182.985C208.306 181.735 207.212 180.016 207.055 178.453H207.212Z" fill="url(#paint0_linear)"/>
<path d="M210.492 146.106L267.53 113.135C272.062 110.478 279.407 110.478 283.939 113.135L340.664 146.263C345.196 148.919 345.196 153.138 340.664 155.795L283.626 188.766C279.094 191.423 271.75 191.423 267.218 188.766L210.492 155.795C205.961 152.982 205.961 148.763 210.492 146.106Z" fill="url(#paint1_radial)"/>
<path d="M210.493 153.92L267.219 186.891C271.75 189.548 279.095 189.548 283.627 186.891L340.665 154.076C342.54 152.982 343.634 151.576 343.946 150.169C344.415 152.201 343.321 154.232 340.665 155.795L283.627 188.766C279.095 191.423 271.75 191.423 267.219 188.766L210.493 155.795C207.837 154.232 206.743 152.201 207.212 150.169C207.524 151.576 208.618 152.826 210.493 153.92Z" fill="white"/>
<path d="M259.562 195.955L262.374 197.517V194.392L259.562 192.829V195.955Z" fill="white"/>
<path d="M253.936 192.673L256.592 194.236V191.11L253.936 189.548V192.673Z" fill="white"/>
<path d="M248.31 189.391L250.967 190.954V187.829L248.31 186.266V189.391Z" fill="white"/>
<path d="M252.998 198.299L255.655 199.861V196.736L252.998 195.173V198.299Z" fill="white"/>
<path d="M247.998 195.486L250.654 197.048V193.923L247.998 192.361V195.486Z" fill="white"/>
<path d="M230.183 178.922L232.84 180.484V177.359L230.183 175.797V178.922Z" fill="white"/>
<path d="M214.713 170.015L217.369 171.577V168.452L214.713 166.89V170.015Z" fill="white"/>
<path d="M242.685 186.11L245.341 187.673V184.547L242.685 182.985V186.11Z" fill="white"/>
<path opacity="0.4" d="M278.939 174.703L317.225 152.513C318.787 151.576 318.631 150.013 316.756 149.076L279.251 127.511C277.376 126.417 274.72 126.417 273.157 127.199L234.871 149.388C233.308 150.326 233.465 151.888 235.34 152.826L272.844 174.39C274.563 175.484 277.376 175.64 278.939 174.703Z" fill="#06033E"/>
<path d="M293.941 198.611L325.663 180.328C326.444 179.859 327.069 178.766 327.069 177.672V175.328C327.069 174.39 326.444 173.921 325.663 174.234L293.941 192.517C293.159 192.986 292.534 194.079 292.534 195.173V197.517C292.534 198.611 293.159 199.08 293.941 198.611Z" fill="white"/>
<path d="M207.212 127.199V99.8525L241.747 104.384L267.531 89.3828C272.063 86.7263 279.408 86.7263 283.939 89.3828L288.002 91.883L344.103 99.3837V127.042V127.199C344.103 128.918 342.852 130.48 340.665 131.73L283.627 164.702C279.095 167.358 271.75 167.358 267.219 164.702L210.493 131.73C208.306 130.48 207.212 128.761 207.055 127.199H207.212Z" fill="url(#paint2_linear)"/>
<path d="M210.492 94.852L267.53 61.8804C272.062 59.2239 279.407 59.2239 283.939 61.8804L340.664 95.0083C345.196 97.6648 345.196 101.884 340.664 104.54L283.626 137.512C279.094 140.168 271.75 140.168 267.218 137.512L210.492 104.54C205.961 101.728 205.961 97.5085 210.492 94.852Z" fill="url(#paint3_radial)"/>
<path opacity="0.4" d="M237.684 96.8835L270.969 77.663C273.626 76.1004 277.845 76.1004 280.501 77.663L313.63 96.8835C316.287 98.4461 316.287 100.946 313.63 102.353L280.345 121.573C277.689 123.136 273.469 123.136 270.813 121.573L237.84 102.353C235.027 100.946 235.027 98.4461 237.684 96.8835Z" fill="#06033E"/>
<path d="M210.493 102.665L267.219 135.637C271.75 138.293 279.095 138.293 283.627 135.637L340.665 102.821C342.54 101.728 343.634 100.321 343.946 98.9149C344.415 100.946 343.321 102.978 340.665 104.54L283.627 137.512C279.095 140.168 271.75 140.168 267.219 137.512L210.493 104.54C207.837 102.978 206.743 100.946 207.212 98.9149C207.524 100.165 208.618 101.571 210.493 102.665Z" fill="white"/>
<path d="M259.562 144.7L262.374 146.263V143.137L259.562 141.575V144.7Z" fill="white"/>
<path d="M253.936 141.419L256.592 142.981V139.856L253.936 138.293V141.419Z" fill="white"/>
<path d="M248.31 138.137L250.967 139.7V136.574L248.31 135.012V138.137Z" fill="white"/>
<path d="M252.998 147.044L255.655 148.607V145.481L252.998 143.919V147.044Z" fill="white"/>
<path d="M247.998 144.231L250.654 145.794V142.669L247.998 141.106V144.231Z" fill="white"/>
<path d="M230.183 127.667L232.84 129.23V126.105L230.183 124.542V127.667Z" fill="white"/>
<path d="M214.713 118.604L217.369 120.167V117.041L214.713 115.635V118.604Z" fill="white"/>
<path d="M242.685 134.856L245.341 136.418V133.293L242.685 131.73V134.856Z" fill="white"/>
<path d="M207.212 75.9441V48.598L241.747 53.1296L267.531 38.1283C272.063 35.4718 279.408 35.4718 283.939 38.1283L288.002 40.6285L344.103 48.1292V75.7879V75.9441C344.103 77.663 342.852 79.2257 340.665 80.4758L283.627 113.447C279.095 116.104 271.75 116.104 267.219 113.447L210.493 80.4758C208.306 79.2257 207.212 77.5068 207.055 75.9441H207.212Z" fill="url(#paint4_linear)"/>
<path d="M210.492 43.5975L267.53 10.6259C272.062 7.96944 279.407 7.96944 283.939 10.6259L340.664 43.5975C345.196 46.254 345.196 50.4731 340.664 53.1296L283.626 86.1013C279.094 88.7577 271.75 88.7577 267.218 86.1013L210.492 53.1296C205.961 50.4731 205.961 46.254 210.492 43.5975Z" fill="url(#paint5_radial)"/>
<path d="M210.493 51.4107L267.219 84.3824C271.75 87.0389 279.095 87.0389 283.627 84.3824L340.665 51.567C342.54 50.4732 343.634 49.0668 343.946 47.6604C344.415 49.6918 343.321 51.7233 340.665 53.2859L283.627 86.2575C279.095 88.914 271.75 88.914 267.219 86.2575L210.493 53.1296C207.837 51.567 206.743 49.5356 207.212 47.5042C207.524 48.9105 208.618 50.3169 210.493 51.4107Z" fill="white"/>
<path d="M259.562 93.2894L262.374 94.852V91.7268L259.562 90.1641V93.2894Z" fill="white"/>
<path d="M253.936 90.1641L256.592 91.7268V88.6015L253.936 87.0388V90.1641Z" fill="white"/>
<path d="M248.31 86.8826L250.967 88.4452V85.3199L248.31 83.7573V86.8826Z" fill="white"/>
<path d="M252.998 95.7896L255.655 97.3522V94.227L252.998 92.6643V95.7896Z" fill="white"/>
<path d="M247.998 92.9768L250.654 94.5395V91.4142L247.998 89.8516V92.9768Z" fill="white"/>
<path d="M230.183 76.4129L232.84 77.9756V74.8503L230.183 73.2876V76.4129Z" fill="white"/>
<path d="M214.713 67.3496L217.369 68.9122V65.787L214.713 64.2243V67.3496Z" fill="white"/>
<path d="M242.685 83.601L245.341 85.1637V82.0384L242.685 80.4758V83.601Z" fill="white"/>
<path d="M376.606 295.026C379.732 295.026 382.701 294.401 385.045 292.994L442.083 260.023C444.427 258.616 445.677 256.741 445.677 254.866C445.677 252.835 444.427 250.959 442.083 249.709L385.357 216.738C380.669 214.081 373.012 214.081 368.324 216.738L311.286 249.709C308.942 251.116 307.692 252.991 307.692 254.866C307.692 256.897 308.942 258.773 311.286 260.023L368.012 292.994C370.512 294.244 373.481 295.026 376.606 295.026ZM376.919 215.644C379.732 215.644 382.701 216.269 384.889 217.519L441.614 250.491C443.646 251.584 444.739 253.147 444.739 254.71C444.739 256.272 443.646 257.835 441.614 258.929L384.576 291.9C380.201 294.401 373.012 294.401 368.637 291.9L311.911 258.929C309.88 257.835 308.786 256.272 308.786 254.71C308.786 253.147 309.88 251.584 311.911 250.491L368.949 217.519C371.137 216.269 373.95 215.644 376.919 215.644Z" fill="#03A7D3"/>
<path d="M308.005 236.739V209.393L342.54 213.925L368.324 198.924C372.856 196.267 380.201 196.267 384.732 198.924L388.795 201.424L444.896 208.924V236.583V236.739C444.896 238.458 443.646 240.021 441.458 241.271L384.42 274.243C379.888 276.899 372.543 276.899 368.012 274.243L311.286 241.271C309.099 240.021 308.005 238.302 307.848 236.739H308.005Z" fill="url(#paint6_linear)"/>
<path d="M311.443 204.549L368.48 171.577C373.012 168.921 380.357 168.921 384.889 171.577L441.614 204.549C446.146 207.206 446.146 211.425 441.614 214.081L384.576 246.897C380.044 249.553 372.7 249.553 368.168 246.897L311.443 213.925C306.911 211.425 306.911 207.049 311.443 204.549Z" fill="url(#paint7_radial)"/>
<path d="M311.443 212.362L368.168 245.334C372.7 247.99 380.044 247.99 384.576 245.334L441.614 212.362C443.489 211.268 444.583 209.862 444.896 208.456C445.364 210.487 444.271 212.519 441.614 214.081L384.576 246.897C380.044 249.553 372.7 249.553 368.168 246.897L311.443 213.925C308.786 212.362 307.692 210.331 308.161 208.299C308.473 209.862 309.567 211.268 311.443 212.362Z" fill="white"/>
<path d="M360.511 254.241L363.167 255.804V252.678L360.511 251.116V254.241Z" fill="white"/>
<path d="M354.729 250.959L357.542 252.522V249.397L354.729 247.834V250.959Z" fill="white"/>
<path d="M349.103 247.678L351.916 249.24V246.115L349.103 244.553V247.678Z" fill="white"/>
<path d="M353.791 256.741L356.448 258.304V255.179L353.791 253.616V256.741Z" fill="white"/>
<path d="M348.791 253.772L351.447 255.335V252.209L348.791 250.647V253.772Z" fill="white"/>
<path d="M330.976 237.208L333.789 238.771V235.646L330.976 234.083V237.208Z" fill="white"/>
<path d="M315.506 228.301L318.162 229.864V226.739L315.506 225.176V228.301Z" fill="white"/>
<path d="M343.478 244.396L346.134 245.959V242.834L343.478 241.271V244.396Z" fill="white"/>
<path opacity="0.4" d="M379.732 232.989L418.018 210.956C419.58 210.018 419.424 208.456 417.549 207.518L380.044 185.954C378.169 184.86 375.513 184.86 373.95 185.641L335.664 207.831C334.101 208.768 334.258 210.331 336.133 211.268L373.637 232.833C375.356 233.77 378.169 233.927 379.732 232.989Z" fill="#06033E"/>
<path d="M394.734 257.054L426.456 238.771C427.237 238.302 427.862 237.208 427.862 236.114V233.77C427.862 232.833 427.237 232.364 426.456 232.677L394.734 250.959C393.952 251.428 393.327 252.522 393.327 253.616V255.96C393.483 257.054 394.108 257.522 394.734 257.054Z" fill="white"/>
<path d="M308.005 185.485V158.139L342.54 162.67L368.324 147.669C372.856 145.013 380.201 145.013 384.732 147.669L388.795 150.169L444.896 157.826V185.485V185.641C444.896 187.36 443.646 188.923 441.458 190.173L384.42 223.144C379.888 225.801 372.543 225.801 368.012 223.144L311.286 190.173C309.099 188.923 308.005 187.204 307.848 185.641V185.485H308.005Z" fill="url(#paint8_linear)"/>
<path d="M311.443 153.295L368.48 120.323C373.012 117.667 380.357 117.667 384.889 120.323L441.614 153.295C446.146 155.951 446.146 160.17 441.614 162.827L384.576 195.798C380.044 198.455 372.7 198.455 368.168 195.798L311.443 162.827C306.911 160.014 306.911 155.795 311.443 153.295Z" fill="url(#paint9_radial)"/>
<path opacity="0.4" d="M338.633 155.17L371.918 135.949C374.575 134.387 378.794 134.387 381.451 135.949L414.423 155.17C417.08 156.732 417.08 159.233 414.423 160.639L381.138 179.859C378.482 181.422 374.262 181.422 371.606 179.859L338.633 160.639C335.977 159.233 335.977 156.732 338.633 155.17Z" fill="#06033E"/>
<path d="M311.443 161.108L368.168 194.079C372.7 196.736 380.044 196.736 384.576 194.079L441.614 161.108C443.489 160.014 444.583 158.608 444.896 157.201C445.364 159.233 444.271 161.264 441.614 162.827L384.576 195.798C380.044 198.455 372.7 198.455 368.168 195.798L311.443 162.827C308.786 161.264 307.692 159.233 308.161 157.201C308.473 158.608 309.567 160.014 311.443 161.108Z" fill="white"/>
<path d="M360.511 202.986L363.167 204.549V201.424L360.511 199.861V202.986Z" fill="white"/>
<path d="M354.729 199.705L357.542 201.268V198.142L354.729 196.58V199.705Z" fill="white"/>
<path d="M349.103 196.423L351.916 197.986V194.861L349.103 193.298V196.423Z" fill="white"/>
<path d="M353.791 205.487L356.448 207.049V203.924L353.791 202.361V205.487Z" fill="white"/>
<path d="M348.791 202.518L351.447 204.08V200.955L348.791 199.392V202.518Z" fill="white"/>
<path d="M330.976 185.954L333.789 187.516V184.391L330.976 182.828V185.954Z" fill="white"/>
<path d="M315.506 177.047L318.162 178.609V175.484L315.506 173.921V177.047Z" fill="white"/>
<path d="M343.478 193.142L346.134 194.704V191.579L343.478 190.017V193.142Z" fill="white"/>
<path d="M308.005 134.23V106.884L342.54 111.416L368.324 96.4146C372.856 93.7582 380.201 93.7582 384.732 96.4146L388.795 98.9149L444.896 106.416V134.074V134.387C444.896 136.106 443.646 137.668 441.458 138.918L384.576 171.89C380.044 174.546 372.7 174.546 368.168 171.89L311.443 138.918C309.255 137.668 308.161 135.949 308.005 134.387V134.23Z" fill="url(#paint10_linear)"/>
<path d="M311.443 101.884L368.48 68.9122C373.012 66.2558 380.357 66.2558 384.889 68.9122L441.614 102.04C446.146 104.697 446.146 108.916 441.614 111.572L384.576 144.544C380.044 147.2 372.7 147.2 368.168 144.544L311.443 111.572C306.911 108.759 306.911 104.54 311.443 101.884Z" fill="url(#paint11_radial)"/>
<path d="M311.443 101.884L368.48 68.9122C373.012 66.2558 380.357 66.2558 384.889 68.9122L441.614 102.04C446.146 104.697 446.146 108.916 441.614 111.572L384.576 144.544C380.044 147.2 372.7 147.2 368.168 144.544L311.443 111.572C306.911 108.759 306.911 104.54 311.443 101.884Z" fill="url(#paint12_radial)"/>
<path d="M376.45 133.762C378.482 133.762 380.669 133.293 382.232 132.355L420.049 110.478C421.768 109.541 422.706 108.134 422.706 106.728C422.706 105.322 421.768 103.915 420.049 102.978L382.545 81.1008C379.263 79.2257 374.106 79.2257 370.981 81.1008L333.164 102.978C331.445 103.915 330.507 105.322 330.507 106.728C330.507 108.134 331.445 109.541 333.164 110.478L370.668 132.355C372.231 133.293 374.262 133.762 376.45 133.762ZM376.606 81.1008C378.482 81.1008 380.357 81.5696 381.607 82.3509L419.111 104.228C420.362 104.853 420.987 105.79 420.987 106.728C420.987 107.666 420.362 108.603 419.111 109.228L381.294 131.105C378.482 132.668 373.95 132.668 371.137 131.105L333.633 109.228C332.383 108.603 331.757 107.666 331.757 106.728C331.757 105.79 332.383 104.853 333.633 104.228L371.45 82.3509C372.856 81.5696 374.731 81.1008 376.606 81.1008Z" fill="#8B1E64"/>
<path d="M311.443 109.697L368.168 142.669C372.7 145.325 380.044 145.325 384.576 142.669L441.614 109.853C443.489 108.759 444.583 107.353 444.896 105.947C445.364 107.978 444.271 110.01 441.614 111.572L384.576 144.544C380.044 147.2 372.7 147.2 368.168 144.544L311.443 111.572C308.786 110.01 307.692 107.978 308.161 105.947C308.473 107.353 309.567 108.603 311.443 109.697Z" fill="white"/>
<path d="M360.511 151.732L363.167 153.295V150.169L360.511 148.607V151.732Z" fill="white"/>
<path d="M354.729 148.45L357.542 150.013V146.888L354.729 145.325V148.45Z" fill="white"/>
<path d="M349.103 145.169L351.916 146.732V143.606L349.103 142.044V145.169Z" fill="white"/>
<path d="M353.791 154.232L356.448 155.639V152.67L353.791 151.107V154.232Z" fill="white"/>
<path d="M348.791 151.263L351.447 152.826V149.701L348.791 148.138V151.263Z" fill="white"/>
<path d="M330.976 134.699L333.789 136.262V133.137L330.976 131.574V134.699Z" fill="white"/>
<path d="M315.506 125.792L318.162 127.355V124.23L315.506 122.667V125.792Z" fill="white"/>
<path d="M343.478 141.887L346.134 143.45V140.325L343.478 138.762V141.887Z" fill="white"/>
<path d="M175.333 294.87C178.458 294.87 181.427 294.244 183.771 292.838L240.809 259.866C243.153 258.46 244.404 256.585 244.404 254.71C244.404 252.678 243.153 250.803 240.809 249.553L184.084 216.581C179.396 213.925 171.739 213.925 167.051 216.581L110.013 249.553C107.669 250.959 106.419 252.835 106.419 254.71C106.419 256.741 107.669 258.616 110.013 259.866L166.738 292.838C169.082 294.244 172.208 294.87 175.333 294.87ZM175.646 215.644C178.458 215.644 181.427 216.269 183.615 217.519L240.341 250.491C242.372 251.584 243.466 253.147 243.466 254.71C243.466 256.272 242.372 257.835 240.341 258.929L183.303 291.901C178.927 294.401 171.739 294.401 167.363 291.901L110.638 258.929C108.606 257.835 107.513 256.272 107.513 254.71C107.513 253.147 108.606 251.584 110.638 250.491L167.676 217.519C169.864 216.269 172.676 215.644 175.646 215.644Z" fill="#03A7D3"/>
<path d="M106.731 236.739V209.393L141.266 213.925L167.051 198.924C171.583 196.267 178.927 196.267 183.459 198.924L187.522 201.58L243.622 209.081V236.739V236.896C243.622 238.615 242.372 240.177 240.184 241.427L183.146 274.399C178.615 277.055 171.27 277.055 166.738 274.399L110.013 241.427C107.825 240.177 106.731 238.458 106.575 236.896V236.739H106.731Z" fill="url(#paint13_linear)"/>
<path d="M110.169 204.393L167.207 171.421C171.739 168.765 179.083 168.765 183.615 171.421L240.341 204.393C244.872 207.049 244.872 211.268 240.341 213.925L183.303 246.897C178.771 249.553 171.426 249.553 166.895 246.897L110.169 213.925C105.637 211.268 105.637 207.049 110.169 204.393Z" fill="url(#paint14_radial)"/>
<path d="M110.169 212.206L166.895 245.178C171.426 247.834 178.771 247.834 183.303 245.178L240.341 212.206C242.216 211.112 243.31 209.706 243.622 208.299C244.091 210.331 242.997 212.362 240.341 213.925L183.303 246.897C178.771 249.553 171.426 249.553 166.895 246.897L110.169 213.925C107.513 212.362 106.419 210.331 106.887 208.299C107.044 209.706 108.138 211.112 110.169 212.206Z" fill="white"/>
<path d="M159.081 254.241L161.894 255.804V252.678L159.081 251.116V254.241Z" fill="white"/>
<path d="M153.455 250.959L156.268 252.522V249.397L153.455 247.834V250.959Z" fill="white"/>
<path d="M147.83 247.678L150.486 249.24V246.115L147.83 244.553V247.678Z" fill="white"/>
<path d="M152.518 256.585L155.174 258.148V255.022L152.518 253.46V256.585Z" fill="white"/>
<path d="M147.517 253.772L150.174 255.335V252.209L147.517 250.647V253.772Z" fill="white"/>
<path d="M129.703 237.208L132.515 238.771V235.646L129.703 234.083V237.208Z" fill="white"/>
<path d="M114.232 228.301L116.889 229.864V226.739L114.232 225.176V228.301Z" fill="white"/>
<path d="M142.204 244.396L144.861 245.959V242.834L142.204 241.271V244.396Z" fill="white"/>
<path opacity="0.4" d="M178.458 232.989L216.744 210.8C218.307 209.862 218.151 208.299 216.275 207.362L178.771 185.797C176.896 184.704 174.239 184.704 172.676 185.485L134.391 207.674C132.828 208.612 132.984 210.175 134.859 211.112L172.364 232.677C174.083 233.77 176.896 233.927 178.458 232.989Z" fill="#06033E"/>
<path d="M193.46 256.897L225.183 238.615C225.964 238.146 226.589 237.052 226.589 235.958V233.614C226.589 232.677 225.964 232.208 225.183 232.52L193.46 250.803C192.679 251.272 192.054 252.366 192.054 253.46V255.804C192.054 256.897 192.679 257.366 193.46 256.897Z" fill="white"/>
<path d="M106.731 185.485V158.139L141.266 162.67L167.051 147.669C171.583 145.013 178.927 145.013 183.459 147.669L187.522 150.169L243.622 157.67V185.329V185.485C243.622 187.204 242.372 188.766 240.184 190.017L183.146 222.988C178.615 225.645 171.27 225.645 166.738 222.988L110.013 190.017C107.825 188.766 106.731 187.048 106.575 185.485H106.731Z" fill="url(#paint15_linear)"/>
<path d="M110.169 153.138L167.051 120.323C171.583 117.667 178.927 117.667 183.459 120.323L240.184 153.295C244.716 155.951 244.716 160.17 240.184 162.827L183.147 195.798C178.615 198.455 171.27 198.455 166.738 195.798L110.013 162.827C105.638 160.014 105.638 155.795 110.169 153.138Z" fill="url(#paint16_radial)"/>
<path opacity="0.4" d="M137.204 155.17L170.489 135.949C173.145 134.387 177.364 134.387 180.021 135.949L212.994 155.17C215.65 156.732 215.65 159.233 212.994 160.639L179.708 179.859C177.052 181.422 172.833 181.422 170.176 179.859L137.204 160.639C134.547 159.076 134.547 156.732 137.204 155.17Z" fill="#06033E"/>
<path d="M110.169 160.952L166.895 193.923C171.426 196.58 178.771 196.58 183.303 193.923L240.341 160.952C242.216 159.858 243.31 158.451 243.622 157.045C244.091 159.076 242.997 161.108 240.341 162.67L183.303 195.642C178.771 198.299 171.426 198.299 166.895 195.642L110.169 162.67C107.513 161.108 106.419 159.076 106.887 157.045C107.044 158.451 108.138 159.858 110.169 160.952Z" fill="white"/>
<path d="M159.081 202.986L161.894 204.393V201.424L159.081 199.861V202.986Z" fill="white"/>
<path d="M153.455 199.705L156.268 201.268V198.142L153.455 196.58V199.705Z" fill="white"/>
<path d="M147.83 196.423L150.486 197.986V194.861L147.83 193.298V196.423Z" fill="white"/>
<path d="M152.518 205.33L155.174 206.893V203.768L152.518 202.205V205.33Z" fill="white"/>
<path d="M147.517 202.518L150.174 204.08V200.955L147.517 199.392V202.518Z" fill="white"/>
<path d="M129.703 185.954L132.515 187.516V184.391L129.703 182.828V185.954Z" fill="white"/>
<path d="M114.232 176.89L116.889 178.453V175.328L114.232 173.765V176.89Z" fill="white"/>
<path d="M142.204 193.142L144.861 194.704V191.579L142.204 190.017V193.142Z" fill="white"/>
<path d="M106.731 134.23V106.884L141.266 111.416L167.051 96.4146C171.583 93.7582 178.927 93.7582 183.459 96.4146L187.522 98.9149L243.622 106.416V134.074V134.387C243.622 136.106 242.372 137.668 240.184 138.918L183.146 171.89C178.615 174.546 171.27 174.546 166.738 171.89L110.013 138.918C107.825 137.668 106.731 135.949 106.575 134.387V134.23H106.731Z" fill="url(#paint17_linear)"/>
<path d="M110.169 101.884L167.207 68.9122C171.739 66.2558 179.083 66.2558 183.615 68.9122L240.341 101.884C244.872 104.54 244.872 108.759 240.341 111.416L183.303 144.388C178.771 147.044 171.426 147.044 166.895 144.388L110.169 111.416C105.637 108.759 105.637 104.54 110.169 101.884Z" fill="url(#paint18_radial)"/>
<path d="M110.169 109.697L166.895 142.669C171.426 145.325 178.771 145.325 183.303 142.669L240.341 109.697C242.216 108.603 243.31 107.197 243.622 105.79C244.091 107.822 242.997 109.853 240.341 111.416L183.303 144.388C178.771 147.044 171.426 147.044 166.895 144.388L110.169 111.416C107.513 109.853 106.419 107.822 106.887 105.79C107.044 107.197 108.138 108.603 110.169 109.697Z" fill="white"/>
<path d="M159.081 151.576L161.894 153.138V150.013L159.081 148.45V151.576Z" fill="white"/>
<path d="M153.455 148.45L156.268 150.013V146.888L153.455 145.325V148.45Z" fill="white"/>
<path d="M147.83 145.169L150.486 146.732V143.606L147.83 142.044V145.169Z" fill="white"/>
<path d="M152.518 154.076L155.174 155.639V152.513L152.518 150.951V154.076Z" fill="white"/>
<path d="M147.517 151.263L150.174 152.826V149.701L147.517 148.138V151.263Z" fill="white"/>
<path d="M129.703 134.699L132.515 136.262V133.137L129.703 131.574V134.699Z" fill="white"/>
<path d="M114.232 125.636L116.889 127.199V124.073L114.232 122.511V125.636Z" fill="white"/>
<path d="M142.204 141.887L144.861 143.45V140.325L142.204 138.762V141.887Z" fill="white"/>
<path d="M276.126 353.312C279.251 353.312 282.22 352.687 284.564 351.281L341.602 318.309C343.946 316.903 345.197 315.028 345.197 313.152C345.197 311.121 343.946 309.246 341.602 307.996L284.877 275.024C280.189 272.368 272.532 272.368 267.844 275.024L210.962 307.839C208.618 309.246 207.368 311.121 207.368 312.996C207.368 315.028 208.618 316.903 210.962 318.153L267.687 351.124C270.032 352.531 273.001 353.312 276.126 353.312ZM276.438 273.93C279.251 273.93 282.22 274.555 284.408 275.805L341.134 308.777C343.165 309.871 344.259 311.433 344.259 312.996C344.259 314.559 343.165 316.121 341.134 317.215L284.096 350.187C279.72 352.687 272.532 352.687 268.156 350.187L211.431 317.215C209.399 316.121 208.306 314.559 208.306 312.996C208.306 311.433 209.399 309.871 211.431 308.777L268.469 275.805C270.657 274.555 273.626 273.93 276.438 273.93Z" fill="#03A7D3"/>
<path opacity="0.2" d="M225.339 309.402L270.032 283.619C273.626 281.587 279.408 281.587 282.846 283.619L327.226 309.402C330.82 311.433 330.82 314.715 327.226 316.903L282.533 342.686C278.939 344.718 273.157 344.718 269.719 342.686L225.339 316.903C221.745 314.715 221.745 311.433 225.339 309.402Z" fill="#03A7D3"/>
<path d="M207.524 295.026V267.68L242.059 272.211L267.844 257.21C272.376 254.553 279.72 254.553 284.252 257.21L288.315 259.71L344.415 267.211V294.869V295.026C344.415 296.745 343.165 298.307 340.977 299.557L283.939 332.529C279.408 335.186 272.063 335.186 267.531 332.529L210.806 299.557C208.618 298.307 207.524 296.588 207.368 295.026H207.524Z" fill="url(#paint19_linear)"/>
<path d="M210.962 262.835L268 229.864C272.532 227.207 279.876 227.207 284.408 229.864L341.134 262.835C345.665 265.492 345.665 269.711 341.134 272.368L284.096 305.339C279.564 307.996 272.219 307.996 267.688 305.339L210.962 272.368C206.43 269.711 206.43 265.336 210.962 262.835Z" fill="url(#paint20_radial)"/>
<path d="M210.962 270.649L267.688 303.62C272.219 306.277 279.564 306.277 284.096 303.62L341.134 270.649C343.009 269.555 344.103 268.148 344.415 266.742C344.884 268.773 343.79 270.805 341.134 272.368L284.096 305.339C279.564 307.996 272.219 307.996 267.688 305.339L210.962 272.368C208.306 270.805 207.212 268.773 207.68 266.742C207.993 268.148 209.087 269.555 210.962 270.649Z" fill="white"/>
<path d="M260.03 312.527L262.687 314.09V310.965L260.03 309.402V312.527Z" fill="white"/>
<path d="M254.405 309.246L257.061 310.808V307.683L254.405 306.12V309.246Z" fill="white"/>
<path d="M248.623 305.964L251.436 307.527V304.402L248.623 302.839V305.964Z" fill="white"/>
<path d="M253.311 315.027L255.967 316.59V313.465L253.311 311.902V315.027Z" fill="white"/>
<path d="M248.31 312.059L250.967 313.621V310.496L248.31 308.933V312.059Z" fill="white"/>
<path d="M230.652 295.495L233.309 297.057V293.932L230.652 292.369V295.495Z" fill="white"/>
<path d="M215.025 286.588L217.682 288.15V285.025L215.025 283.462V286.588Z" fill="white"/>
<path d="M242.997 302.683L245.81 304.245V301.12L242.997 299.557V302.683Z" fill="white"/>
<path opacity="0.4" d="M279.251 291.275L317.537 269.086C319.1 268.148 318.943 266.586 317.068 265.648L279.564 244.084C277.689 242.99 275.032 242.99 273.469 243.771L235.184 265.961C233.621 266.898 233.777 268.461 235.653 269.399L273.157 290.963C274.876 292.057 277.689 292.213 279.251 291.275Z" fill="#06033E"/>
<path d="M294.253 315.34L325.976 297.057C326.757 296.588 327.382 295.495 327.382 294.401V292.057C327.382 291.119 326.757 290.65 325.976 290.963L294.253 309.246C293.472 309.715 292.847 310.808 292.847 311.902V314.246C293.003 315.34 293.628 315.653 294.253 315.34Z" fill="white"/>
<path d="M207.524 243.771V216.425L242.059 220.957L267.844 205.955C272.376 203.299 279.72 203.299 284.252 205.955L288.315 208.456L344.415 215.956V243.771V243.928C344.415 245.646 343.165 247.209 340.977 248.459L283.939 281.431C279.408 284.087 272.063 284.087 267.531 281.431L210.962 248.459C208.774 247.209 207.68 245.49 207.524 243.928V243.771Z" fill="url(#paint21_linear)"/>
<path d="M210.962 211.425L268 178.453C272.532 175.797 279.876 175.797 284.408 178.453L341.134 211.425C345.665 214.081 345.665 218.3 341.134 220.957L284.096 253.928C279.564 256.585 272.219 256.585 267.688 253.928L210.962 220.957C206.43 218.3 206.43 214.081 210.962 211.425Z" fill="url(#paint22_radial)"/>
<path opacity="0.4" d="M238.153 213.456L271.438 194.236C274.094 192.673 278.314 192.673 280.97 194.236L313.943 213.456C316.599 215.019 316.599 217.519 313.943 218.925L280.658 238.146C278.001 239.708 273.782 239.708 271.125 238.146L238.153 218.925C235.496 217.519 235.496 215.019 238.153 213.456Z" fill="#06033E"/>
<path d="M210.962 219.394L267.688 252.366C272.219 255.022 279.564 255.022 284.096 252.366L341.134 219.394C343.009 218.3 344.103 216.894 344.415 215.488C344.884 217.519 343.79 219.55 341.134 221.113L284.096 254.085C279.564 256.741 272.219 256.741 267.688 254.085L210.962 221.113C208.306 219.55 207.212 217.519 207.68 215.488C207.993 216.894 209.087 218.3 210.962 219.394Z" fill="white"/>
<path d="M260.03 261.273L262.687 262.835V259.71L260.03 258.148V261.273Z" fill="white"/>
<path d="M254.405 257.991L257.061 259.554V256.429L254.405 254.866V257.991Z" fill="white"/>
<path d="M248.623 254.71L251.436 256.272V253.147L248.623 251.584V254.71Z" fill="white"/>
<path d="M253.311 263.773L255.967 265.336V262.21L253.311 260.648V263.773Z" fill="white"/>
<path d="M248.31 260.804L250.967 262.367V259.241L248.31 257.679V260.804Z" fill="white"/>
<path d="M230.652 244.24L233.309 245.803V242.677L230.652 241.115V244.24Z" fill="white"/>
<path d="M215.025 235.333L217.682 236.896V233.77L215.025 232.208V235.333Z" fill="white"/>
<path d="M242.997 251.428L245.81 252.991V249.866L242.997 248.303V251.428Z" fill="white"/>
<path d="M207.524 192.517V165.171L242.059 169.702L267.844 154.701C272.376 152.044 279.72 152.044 284.252 154.701L288.315 157.201L344.415 164.702V192.361V192.517C344.415 194.236 343.165 195.798 340.977 197.048L283.939 230.02C279.408 232.677 272.063 232.677 267.531 230.02L210.806 197.048C208.618 195.798 207.524 194.079 207.368 192.517H207.524Z" fill="url(#paint23_linear)"/>
<path d="M210.962 160.17L268 127.199C272.532 124.542 279.876 124.542 284.408 127.199L341.134 160.17C345.665 162.827 345.665 167.046 341.134 169.702L284.096 202.674C279.564 205.33 272.219 205.33 267.688 202.674L210.962 169.702C206.43 167.046 206.43 162.827 210.962 160.17Z" fill="url(#paint24_radial)"/>
<path d="M210.962 167.983L267.688 200.955C272.219 203.612 279.564 203.612 284.096 200.955L341.134 167.983C343.009 166.89 344.103 165.483 344.415 164.077C344.884 166.108 343.79 168.14 341.134 169.702L284.096 202.674C279.564 205.33 272.219 205.33 267.688 202.674L210.962 169.702C208.306 168.14 207.212 166.108 207.68 164.077C207.993 165.639 209.087 166.89 210.962 167.983Z" fill="white"/>
<path d="M260.03 210.018L262.687 211.581V208.456L260.03 206.893V210.018Z" fill="white"/>
<path d="M254.405 206.737L257.061 208.299V205.174L254.405 203.612V206.737Z" fill="white"/>
<path d="M248.623 203.455L251.436 205.018V201.893L248.623 200.33V203.455Z" fill="white"/>
<path d="M253.311 212.362L255.967 213.925V210.8L253.311 209.393V212.362Z" fill="white"/>
<path d="M248.31 209.55L250.967 211.112V207.987L248.31 206.424V209.55Z" fill="white"/>
<path d="M230.652 192.986L233.309 194.548V191.423L230.652 189.86V192.986Z" fill="white"/>
<path d="M215.025 184.079L217.682 185.641V182.516L215.025 180.953V184.079Z" fill="white"/>
<path d="M242.997 200.174L245.81 201.736V198.611L242.997 197.048V200.174Z" fill="white"/>
<path d="M41.694 333.052L139.807 276.406L140.354 277.354L42.2409 333.999L41.694 333.052Z" fill="#03A7D3"/>
<path d="M0.468803 310.027L31.8787 291.9C34.6916 290.182 38.5983 289.088 42.505 288.775L76.1027 286.119C80.3219 285.806 84.2286 284.712 87.1977 282.993L118.608 264.867L118.139 263.929L86.7289 282.056C83.9161 283.775 80.0094 284.869 76.1027 285.181L42.505 287.838C38.2858 288.15 34.379 289.244 31.4099 290.963L1.52588e-05 309.089L0.468803 310.027Z" fill="#03A7D3"/>
<path d="M83.7598 358L115.17 339.873C118.295 338.155 120.17 335.811 120.795 333.31L125.327 313.934C125.796 311.746 127.671 309.558 130.484 307.996L161.894 289.869L161.425 288.931L130.015 307.058C126.89 308.777 125.015 311.121 124.39 313.621L119.858 332.998C119.389 335.186 117.514 337.373 114.701 338.936L83.2909 357.062L83.7598 358Z" fill="#03A7D3"/>
<path d="M62.9761 345.968L96.4175 326.747C98.1365 325.81 99.5429 324.56 100.48 323.309L113.92 305.964C114.857 304.87 116.107 303.777 117.67 302.839L151.111 283.619L150.643 282.681L117.201 301.901C115.482 302.839 114.076 304.089 113.138 305.339L99.6991 322.684C98.7615 323.778 97.5114 324.872 95.9487 325.81L62.5073 345.03L62.9761 345.968Z" fill="#03A7D3"/>
<path d="M21.2525 322.059L54.6939 302.683C56.2566 301.745 58.1318 300.964 60.1633 300.495L90.1668 292.682C92.3546 292.057 94.2298 291.275 95.9487 290.338L129.39 271.117L128.921 270.18L95.4799 289.4C93.9172 290.338 92.042 291.119 90.0105 291.588L60.007 299.401C57.8193 300.026 55.9441 300.808 54.2251 301.745L20.7837 320.965L21.2525 322.059Z" fill="#03A7D3"/>
<path d="M434.072 264.533L434.618 263.586L536.026 322.036L535.48 322.984L434.072 264.533Z" fill="#03A7D3"/>
<path d="M419.564 272.757L420.11 271.809L521.518 330.259L520.971 331.207L419.564 272.757Z" fill="#03A7D3"/>
<path d="M405.113 281.195L405.659 280.247L507.067 338.697L506.521 339.645L405.113 281.195Z" fill="#03A7D3"/>
<path d="M390.661 289.632L391.207 288.684L492.615 347.135L492.069 348.082L390.661 289.632Z" fill="#03A7D3"/>
<defs>
<linearGradient id="paint0_linear" x1="352.343" y1="178.461" x2="255.777" y2="178.461" gradientUnits="userSpaceOnUse">
<stop stop-color="#01C8EF"/>
<stop offset="0.1297" stop-color="#04B1DD"/>
<stop offset="0.5466" stop-color="#0E6BA7"/>
<stop offset="0.8476" stop-color="#154085"/>
<stop offset="1" stop-color="#172F78"/>
</linearGradient>
<radialGradient id="paint1_radial" cx="0" cy="0" r="1" gradientUnits="userSpaceOnUse" gradientTransform="translate(369.465 106.052) rotate(180) scale(215.651 215.645)">
<stop stop-color="#01C8EF"/>
<stop offset="0.1396" stop-color="#03BAE4"/>
<stop offset="0.4033" stop-color="#0895C8"/>
<stop offset="0.76" stop-color="#115A9A"/>
<stop offset="1" stop-color="#172F78"/>
</radialGradient>
<linearGradient id="paint2_linear" x1="352.343" y1="127.187" x2="255.777" y2="127.187" gradientUnits="userSpaceOnUse">
<stop stop-color="#01C8EF"/>
<stop offset="0.1297" stop-color="#04B1DD"/>
<stop offset="0.5466" stop-color="#0E6BA7"/>
<stop offset="0.8476" stop-color="#154085"/>
<stop offset="1" stop-color="#172F78"/>
</linearGradient>
<radialGradient id="paint3_radial" cx="0" cy="0" r="1" gradientUnits="userSpaceOnUse" gradientTransform="translate(369.465 54.778) rotate(180) scale(215.651 215.645)">
<stop stop-color="#01C8EF"/>
<stop offset="0.1396" stop-color="#03BAE4"/>
<stop offset="0.4033" stop-color="#0895C8"/>
<stop offset="0.76" stop-color="#115A9A"/>
<stop offset="1" stop-color="#172F78"/>
</radialGradient>
<linearGradient id="paint4_linear" x1="352.343" y1="75.913" x2="255.777" y2="75.913" gradientUnits="userSpaceOnUse">
<stop stop-color="#01C8EF"/>
<stop offset="0.1297" stop-color="#04B1DD"/>
<stop offset="0.5466" stop-color="#0E6BA7"/>
<stop offset="0.8476" stop-color="#154085"/>
<stop offset="1" stop-color="#172F78"/>
</linearGradient>
<radialGradient id="paint5_radial" cx="0" cy="0" r="1" gradientUnits="userSpaceOnUse" gradientTransform="translate(369.465 3.50406) rotate(180) scale(215.651 215.645)">
<stop stop-color="#01C8EF"/>
<stop offset="0.1396" stop-color="#03BAE4"/>
<stop offset="0.4033" stop-color="#0895C8"/>
<stop offset="0.76" stop-color="#115A9A"/>
<stop offset="1" stop-color="#172F78"/>
</radialGradient>
<linearGradient id="paint6_linear" x1="453.177" y1="236.798" x2="356.611" y2="236.798" gradientUnits="userSpaceOnUse">
<stop stop-color="#01C8EF"/>
<stop offset="0.1297" stop-color="#04B1DD"/>
<stop offset="0.5466" stop-color="#0E6BA7"/>
<stop offset="0.8476" stop-color="#154085"/>
<stop offset="1" stop-color="#172F78"/>
</linearGradient>
<radialGradient id="paint7_radial" cx="0" cy="0" r="1" gradientUnits="userSpaceOnUse" gradientTransform="translate(470.3 164.389) rotate(180) scale(215.651 215.645)">
<stop stop-color="#01C8EF"/>
<stop offset="0.1396" stop-color="#03BAE4"/>
<stop offset="0.4033" stop-color="#0895C8"/>
<stop offset="0.76" stop-color="#115A9A"/>
<stop offset="1" stop-color="#172F78"/>
</radialGradient>
<linearGradient id="paint8_linear" x1="453.177" y1="185.524" x2="356.611" y2="185.524" gradientUnits="userSpaceOnUse">
<stop stop-color="#01C8EF"/>
<stop offset="0.1297" stop-color="#04B1DD"/>
<stop offset="0.5466" stop-color="#0E6BA7"/>
<stop offset="0.8476" stop-color="#154085"/>
<stop offset="1" stop-color="#172F78"/>
</linearGradient>
<radialGradient id="paint9_radial" cx="0" cy="0" r="1" gradientUnits="userSpaceOnUse" gradientTransform="translate(470.3 113.115) rotate(180) scale(215.651 215.645)">
<stop stop-color="#01C8EF"/>
<stop offset="0.1396" stop-color="#03BAE4"/>
<stop offset="0.4033" stop-color="#0895C8"/>
<stop offset="0.76" stop-color="#115A9A"/>
<stop offset="1" stop-color="#172F78"/>
</radialGradient>
<linearGradient id="paint10_linear" x1="453.177" y1="134.25" x2="356.611" y2="134.25" gradientUnits="userSpaceOnUse">
<stop stop-color="#01C8EF"/>
<stop offset="0.1297" stop-color="#04B1DD"/>
<stop offset="0.5466" stop-color="#0E6BA7"/>
<stop offset="0.8476" stop-color="#154085"/>
<stop offset="1" stop-color="#172F78"/>
</linearGradient>
<radialGradient id="paint11_radial" cx="0" cy="0" r="1" gradientUnits="userSpaceOnUse" gradientTransform="translate(470.3 61.8415) rotate(180) scale(215.651 215.645)">
<stop stop-color="#01C8EF"/>
<stop offset="0.1396" stop-color="#03BAE4"/>
<stop offset="0.4033" stop-color="#0895C8"/>
<stop offset="0.76" stop-color="#115A9A"/>
<stop offset="1" stop-color="#172F78"/>
</radialGradient>
<radialGradient id="paint12_radial" cx="0" cy="0" r="1" gradientUnits="userSpaceOnUse" gradientTransform="translate(451.271 74.8359) rotate(180) scale(148.268 148.263)">
<stop stop-color="#F9636B"/>
<stop offset="1" stop-color="#B6246E"/>
</radialGradient>
<linearGradient id="paint13_linear" x1="251.873" y1="236.741" x2="155.307" y2="236.741" gradientUnits="userSpaceOnUse">
<stop stop-color="#01C8EF"/>
<stop offset="0.1297" stop-color="#04B1DD"/>
<stop offset="0.5466" stop-color="#0E6BA7"/>
<stop offset="0.8476" stop-color="#154085"/>
<stop offset="1" stop-color="#172F78"/>
</linearGradient>
<radialGradient id="paint14_radial" cx="0" cy="0" r="1" gradientUnits="userSpaceOnUse" gradientTransform="translate(268.996 164.332) rotate(180) scale(215.651 215.645)">
<stop stop-color="#01C8EF"/>
<stop offset="0.1396" stop-color="#03BAE4"/>
<stop offset="0.4033" stop-color="#0895C8"/>
<stop offset="0.76" stop-color="#115A9A"/>
<stop offset="1" stop-color="#172F78"/>
</radialGradient>
<linearGradient id="paint15_linear" x1="251.873" y1="185.467" x2="155.307" y2="185.467" gradientUnits="userSpaceOnUse">
<stop stop-color="#01C8EF"/>
<stop offset="0.1297" stop-color="#04B1DD"/>
<stop offset="0.5466" stop-color="#0E6BA7"/>
<stop offset="0.8476" stop-color="#154085"/>
<stop offset="1" stop-color="#172F78"/>
</linearGradient>
<radialGradient id="paint16_radial" cx="0" cy="0" r="1" gradientUnits="userSpaceOnUse" gradientTransform="translate(268.997 113.058) rotate(180) scale(215.651 215.645)">
<stop stop-color="#01C8EF"/>
<stop offset="0.1396" stop-color="#03BAE4"/>
<stop offset="0.4033" stop-color="#0895C8"/>
<stop offset="0.76" stop-color="#115A9A"/>
<stop offset="1" stop-color="#172F78"/>
</radialGradient>
<linearGradient id="paint17_linear" x1="251.873" y1="134.193" x2="155.307" y2="134.193" gradientUnits="userSpaceOnUse">
<stop stop-color="#01C8EF"/>
<stop offset="0.1297" stop-color="#04B1DD"/>
<stop offset="0.5466" stop-color="#0E6BA7"/>
<stop offset="0.8476" stop-color="#154085"/>
<stop offset="1" stop-color="#172F78"/>
</linearGradient>
<radialGradient id="paint18_radial" cx="0" cy="0" r="1" gradientUnits="userSpaceOnUse" gradientTransform="translate(268.996 61.784) rotate(180) scale(215.651 215.645)">
<stop stop-color="#01C8EF"/>
<stop offset="0.1396" stop-color="#03BAE4"/>
<stop offset="0.4033" stop-color="#0895C8"/>
<stop offset="0.76" stop-color="#115A9A"/>
<stop offset="1" stop-color="#172F78"/>
</radialGradient>
<linearGradient id="paint19_linear" x1="352.707" y1="295.078" x2="256.141" y2="295.078" gradientUnits="userSpaceOnUse">
<stop stop-color="#01C8EF"/>
<stop offset="0.1297" stop-color="#04B1DD"/>
<stop offset="0.5466" stop-color="#0E6BA7"/>
<stop offset="0.8476" stop-color="#154085"/>
<stop offset="1" stop-color="#172F78"/>
</linearGradient>
<radialGradient id="paint20_radial" cx="0" cy="0" r="1" gradientUnits="userSpaceOnUse" gradientTransform="translate(369.83 222.669) rotate(180) scale(215.651 215.645)">
<stop stop-color="#01C8EF"/>
<stop offset="0.1396" stop-color="#03BAE4"/>
<stop offset="0.4033" stop-color="#0895C8"/>
<stop offset="0.76" stop-color="#115A9A"/>
<stop offset="1" stop-color="#172F78"/>
</radialGradient>
<linearGradient id="paint21_linear" x1="352.707" y1="243.804" x2="256.141" y2="243.804" gradientUnits="userSpaceOnUse">
<stop stop-color="#01C8EF"/>
<stop offset="0.1297" stop-color="#04B1DD"/>
<stop offset="0.5466" stop-color="#0E6BA7"/>
<stop offset="0.8476" stop-color="#154085"/>
<stop offset="1" stop-color="#172F78"/>
</linearGradient>
<radialGradient id="paint22_radial" cx="0" cy="0" r="1" gradientUnits="userSpaceOnUse" gradientTransform="translate(369.83 171.395) rotate(180) scale(215.651 215.645)">
<stop stop-color="#01C8EF"/>
<stop offset="0.1396" stop-color="#03BAE4"/>
<stop offset="0.4033" stop-color="#0895C8"/>
<stop offset="0.76" stop-color="#115A9A"/>
<stop offset="1" stop-color="#172F78"/>
</radialGradient>
<linearGradient id="paint23_linear" x1="352.707" y1="192.53" x2="256.141" y2="192.53" gradientUnits="userSpaceOnUse">
<stop stop-color="#01C8EF"/>
<stop offset="0.1297" stop-color="#04B1DD"/>
<stop offset="0.5466" stop-color="#0E6BA7"/>
<stop offset="0.8476" stop-color="#154085"/>
<stop offset="1" stop-color="#172F78"/>
</linearGradient>
<radialGradient id="paint24_radial" cx="0" cy="0" r="1" gradientUnits="userSpaceOnUse" gradientTransform="translate(369.83 120.121) rotate(180) scale(215.651 215.645)">
<stop stop-color="#01C8EF"/>
<stop offset="0.1396" stop-color="#03BAE4"/>
<stop offset="0.4033" stop-color="#0895C8"/>
<stop offset="0.76" stop-color="#115A9A"/>
<stop offset="1" stop-color="#172F78"/>
</radialGradient>
</defs>
</svg>
