<svg width="466" height="435" viewBox="0 0 466 435" fill="none" xmlns="http://www.w3.org/2000/svg">
<path opacity="0.5" d="M168.692 304.804C155.526 312.326 134.259 312.326 121.093 304.804C107.928 297.282 107.928 284.985 121.093 277.318C134.259 269.796 155.526 269.796 168.692 277.318C181.857 284.985 181.857 297.137 168.692 304.804Z" fill="#C4D9E8"/>
<path opacity="0.5" d="M452.111 412.866C433.593 423.571 403.645 423.571 385.126 412.866C366.608 402.161 366.608 384.947 385.126 374.242C403.645 363.537 433.593 363.537 452.111 374.242C470.63 384.947 470.63 402.161 452.111 412.866Z" fill="#C4D9E8"/>
<path d="M125.578 52.5125C125.578 52.5125 126.446 70.5953 127.893 82.7469C129.34 94.8986 158.564 73.3438 158.564 73.3438V59.4562L125.578 52.5125Z" fill="#173D7A"/>
<path d="M141.203 277.463C141.637 278.62 149.161 287.734 156.828 290.048C160.156 291.061 162.326 291.206 163.773 291.061C165.219 290.916 166.088 289.325 165.654 288.023C164.351 284.406 160.59 276.739 151.041 271.965C138.31 265.6 141.203 277.463 141.203 277.463Z" fill="#173D7A"/>
<path d="M138.744 280.935C138.744 280.935 141.637 287.589 142.505 293.231C143.084 296.703 141.203 301.043 139.612 304.081C138.599 305.961 136.284 306.25 134.693 304.949C132.233 302.634 129.051 298.728 128.472 293.231C127.604 283.828 128.472 282.092 128.472 282.092L138.744 280.935Z" fill="#173D7A"/>
<path d="M120.37 166.796C120.37 166.796 119.357 178.658 120.37 191.967C121.383 205.131 124.855 266.757 125.578 281.658C125.578 281.658 125.289 286.142 133.97 285.13C142.65 284.117 141.927 279.198 141.927 279.198C141.927 279.198 154.079 279.054 154.514 271.821C154.948 264.588 166.956 185.891 166.956 157.537L120.37 166.796Z" fill="#FDD762"/>
<path d="M171.585 105.17L177.517 114.428L198.206 139.165C198.206 139.165 197.482 141.48 194.878 142.059C192.853 142.493 175.636 126.001 168.113 118.768C166.088 116.887 165.798 113.849 167.39 111.535L171.585 105.17Z" fill="#FFC2B0"/>
<path d="M159.867 67.1233C159.867 67.1233 169.415 66.8339 172.743 80.5769C176.07 94.3198 178.674 111.535 175.781 112.981C167.1 117.321 161.747 112.258 161.747 112.258L159.867 67.1233Z" fill="#D1525C"/>
<path d="M162.76 67.702C161.169 66.9786 159.288 66.9786 157.696 67.4126C149.595 69.7272 119.213 78.6963 114.149 82.8915C108.362 87.81 122.83 115.73 122.685 124.844C122.54 133.957 121.383 144.662 120.659 154.644C119.791 164.626 118.779 169.978 126.88 174.174C134.982 178.369 148.871 178.658 159.288 170.702C169.704 162.745 167.824 157.393 167.39 151.606C166.956 145.82 163.483 121.082 163.773 113.994C163.773 113.994 167.39 111.245 170.138 106.616C172.887 101.987 168.113 93.4519 166.088 87.9547C164.062 82.4575 167.245 76.0924 166.522 71.6078C165.943 69.5826 164.496 68.4253 162.76 67.702Z" fill="#EF5F65"/>
<path d="M142.792 87.5801C149.133 86.7677 153.754 82.0619 153.114 77.0692C152.474 72.0766 146.816 68.6879 140.476 69.5003C134.135 70.3126 129.514 75.0185 130.154 80.0111C130.793 85.0037 136.452 88.3925 142.792 87.5801Z" fill="white"/>
<path d="M142.461 84.9972C146.979 84.4184 150.271 81.0583 149.814 77.4921C149.357 73.926 145.324 71.5043 140.806 72.0831C136.289 72.6619 132.997 76.022 133.454 79.5882C133.911 83.1543 137.944 85.576 142.461 84.9972Z" fill="#FFC2B0"/>
<path d="M145.254 65.8215C145.254 65.8215 139.757 61.3369 138.744 63.6515C137.731 65.9661 136.718 75.8032 136.718 75.8032L147.569 78.6964L145.978 68.7147C145.978 68.7147 148.148 66.8341 145.254 65.8215Z" fill="#FFC2B0"/>
<path d="M146.122 70.4505C155.151 70.4505 162.471 63.1318 162.471 54.1037C162.471 45.0756 155.151 37.7568 146.122 37.7568C137.093 37.7568 129.774 45.0756 129.774 54.1037C129.774 63.1318 137.093 70.4505 146.122 70.4505Z" fill="#FFC2B0"/>
<path d="M137.876 66.4001C137.731 66.9787 137.731 67.4127 137.586 67.9913C138.744 73.6332 147.135 76.0924 147.135 76.0924L145.833 68.57C145.833 68.57 146.846 67.702 146.556 66.834C143.373 65.8214 139.178 64.9534 137.876 66.4001Z" fill="#EA9C92"/>
<path d="M146.122 70.4505C155.151 70.4505 162.471 63.1318 162.471 54.1037C162.471 45.0756 155.151 37.7568 146.122 37.7568C137.093 37.7568 129.774 45.0756 129.774 54.1037C129.774 63.1318 137.093 70.4505 146.122 70.4505Z" fill="#FFC2B0"/>
<path d="M105.902 123.108L107.783 166.651L114.149 167.23L118.2 128.026L105.902 123.108Z" fill="#FFC2B0"/>
<path d="M126.88 119.346C124.71 110.088 120.659 89.4014 120.659 89.4014L118.779 109.943C120.804 116.019 122.54 121.516 122.54 124.844C122.396 130.196 121.962 136.127 121.527 142.059C121.527 142.059 129.051 128.75 126.88 119.346Z" fill="#D1525C"/>
<path d="M115.306 82.0237C115.306 82.0237 110.243 83.9043 107.349 99.6725C104.456 115.296 102.286 131.064 107.494 133.09C112.702 135.115 116.898 136.561 118.489 132.511C119.936 128.316 120.949 108.208 121.093 100.83C121.238 93.452 121.527 83.4703 115.306 82.0237Z" fill="#EF5F65"/>
<path d="M196.614 137.429C196.614 137.429 199.363 138.442 201.388 140.612C202.98 142.348 203.993 143.939 204.571 144.952C206.163 147.266 207.465 152.474 206.597 153.053C205.584 153.631 200.086 144.518 199.218 146.688C198.35 148.858 199.218 150.738 198.061 150.883C196.903 150.883 192.997 141.624 189.814 138.731C186.631 135.838 196.614 137.429 196.614 137.429Z" fill="#FFC2B0"/>
<path d="M141.927 279.054C141.927 279.054 143.373 279.054 145.399 278.62L147.858 182.709L141.927 279.054Z" fill="#D8892B"/>
<path d="M107.783 166.217C107.783 166.217 106.047 176.344 106.337 179.671C106.626 182.998 108.362 188.351 109.664 188.206C110.966 188.061 109.664 175.042 111.979 176.344C114.294 177.646 114.583 179.816 115.596 179.092C116.609 178.369 113.715 167.23 114.583 162.456C115.451 157.682 107.783 166.217 107.783 166.217Z" fill="#FFC2B0"/>
<path d="M152.343 55.5505C160.445 58.4437 162.037 56.7078 162.181 56.5631C162.326 56.1291 162.326 55.5505 162.326 55.1165C162.471 53.3805 162.181 51.4999 161.747 49.9086L140.48 47.0154C140.625 47.0154 143.952 52.5126 152.343 55.5505Z" fill="#EA9C92"/>
<path d="M162.905 38.7695C161.024 37.1783 154.079 28.9325 141.637 30.8131C133.825 31.9704 127.314 37.3229 125.868 49.4746C124.855 57.5757 127.893 65.6768 133.391 71.6079C133.68 71.4633 133.97 71.3186 134.259 71.1739C137.442 69.1487 137.731 67.9914 137.731 67.9914L138.455 61.7709C138.455 60.9029 137.731 60.1796 136.863 60.0349C136.14 60.0349 135.416 59.6009 134.548 58.5883C132.812 56.2737 133.536 52.6571 137.152 52.5125C139.033 52.5125 139.757 51.4998 140.046 50.4872C140.335 49.6192 141.203 49.1852 141.927 49.4746C145.978 50.9212 155.96 54.1038 162.471 52.2232C170.717 50.0532 164.785 40.5055 162.905 38.7695Z" fill="#173D7A"/>
<path d="M153.645 62.7834L158.564 61.4814C158.564 61.4814 156.25 65.2427 152.777 66.1106C149.305 67.1233 148.726 64.0854 148.726 64.0854L153.645 62.7834Z" fill="white"/>
<path opacity="0.5" d="M306.857 407.803L194.01 343.429C189.814 341.114 190.393 336.919 195.167 334.17L260.127 296.703C264.901 293.954 272.135 293.665 276.186 295.979L389.033 360.354C393.228 362.669 392.649 366.864 387.875 369.612L322.916 407.08C318.142 409.973 311.052 410.263 306.857 407.803Z" fill="#C4D9E8"/>
<path d="M399.16 338.8V75.3693L294.415 48.0281L275.173 36.889C270.688 34.2851 263.02 34.7191 257.957 37.6124L240.017 48.0281H184.172L200.665 302.345C200.52 304.081 201.533 305.672 203.559 306.974L308.014 385.815C312.499 388.419 320.167 387.985 325.231 385.092L394.82 344.875C397.858 342.995 399.305 340.825 399.16 338.8Z" fill="#396CAA"/>
<path d="M267.071 35.1531C263.888 35.2977 260.416 36.0211 257.812 37.6123L239.872 48.028H184.027V312.182C183.883 313.918 184.895 315.509 186.921 316.811L308.014 385.815C310.184 386.972 313.078 387.551 315.971 387.551L317.273 121.806L267.071 35.1531Z" fill="#D4ECFF"/>
<path d="M309.027 386.249C312.789 387.84 318.431 387.84 322.771 386.104V118.479H309.027V386.249Z" fill="#5793CE"/>
<path d="M308.014 121.661L186.921 52.6572C182.436 50.0532 183.015 45.5687 188.223 42.6754L257.812 2.45928C262.876 -0.433968 270.688 -0.867955 275.028 1.73597L396.122 70.74C400.607 73.3439 400.028 77.8284 394.82 80.7217L325.231 120.938C320.167 123.831 312.355 124.12 308.014 121.661Z" fill="#D4ECFF"/>
<path d="M394.82 75.8032L325.231 116.019C320.167 118.913 312.355 119.347 308.014 116.743L186.921 47.7387C185.908 47.16 185.185 46.4367 184.751 45.7134C183.159 48.1726 183.883 50.7766 186.921 52.5125L308.014 121.517C312.499 124.12 320.167 123.686 325.231 120.793L394.82 80.577C398.726 78.2624 400.028 75.0799 398.292 72.6206C397.713 73.7779 396.556 74.9352 394.82 75.8032Z" fill="#FAFDFF"/>
<path d="M311.342 93.5965L230.758 46.8705C228.732 45.7132 228.877 43.5433 231.336 42.2413L263.888 23.4352C266.348 21.9886 269.965 21.8439 271.99 23.1459L352.574 69.8719C354.6 71.0292 354.455 73.1991 351.996 74.5011L319.444 93.3072C317.129 94.7538 313.512 94.8985 311.342 93.5965Z" fill="#173D7A"/>
<path d="M267.939 49.0404L263.31 46.2918C263.02 46.1471 263.02 45.8578 263.454 45.7132L267.939 43.1092C268.228 42.9646 268.807 42.9646 269.097 43.1092L273.726 45.8578C274.015 46.0025 274.015 46.2918 273.581 46.4365L269.097 49.0404C268.662 49.1851 268.228 49.1851 267.939 49.0404Z" fill="#D4ECFF"/>
<path d="M283.419 58.0094L278.79 55.2608C278.5 55.1161 278.5 54.8268 278.934 54.6821L283.419 52.0782C283.709 51.9336 284.287 51.9336 284.577 52.0782L289.206 54.8268C289.496 54.9715 289.496 55.2608 289.062 55.4055L284.577 58.0094C284.287 58.154 283.709 58.154 283.419 58.0094Z" fill="#D4ECFF"/>
<path d="M299.044 66.9786L294.415 64.23C294.125 64.0854 294.125 63.796 294.559 63.6514L299.044 61.0475C299.334 60.9028 299.912 60.9028 300.202 61.0475L304.831 63.796C305.121 63.9407 305.121 64.23 304.687 64.3747L300.202 66.9786C299.912 67.1233 299.334 67.1233 299.044 66.9786Z" fill="#D4ECFF"/>
<path d="M314.669 75.9476L310.04 73.199C309.75 73.0544 309.75 72.765 310.184 72.6204L314.669 70.0165C314.959 69.8718 315.537 69.8718 315.827 70.0165L320.456 72.765C320.746 72.9097 320.746 73.199 320.312 73.3437L315.827 75.9476C315.537 76.0923 314.959 76.0923 314.669 75.9476Z" fill="#D4ECFF"/>
<path d="M230.757 47.0146C231.047 47.0146 231.191 46.87 231.336 46.7253L263.888 27.9192C266.347 26.4726 269.964 26.3279 271.99 27.6299L352.429 74.3558C354.31 73.0539 354.455 71.1733 352.574 70.016L271.99 23.1453C269.964 21.988 266.347 22.1327 263.888 23.4346L231.336 42.2408C229.021 43.6874 228.732 45.7127 230.757 47.0146Z" fill="#5793CE"/>
<path d="M294.559 173.884L205.15 122.24C202.546 120.793 200.52 116.743 200.52 113.271V96.924C200.52 93.4521 202.546 91.8608 205.15 93.4521L294.559 145.097C297.164 146.543 299.189 150.594 299.189 154.066V170.412C299.334 173.74 297.164 175.331 294.559 173.884Z" fill="#5793CE"/>
<path d="M287.904 159.274L283.709 156.814C283.13 156.525 282.696 155.657 282.696 154.934V150.449C282.696 149.726 283.13 149.292 283.709 149.726L287.904 152.185C288.483 152.474 288.917 153.342 288.917 154.066V158.55C288.917 159.274 288.338 159.708 287.904 159.274Z" fill="#173D7A"/>
<path d="M273.726 151.173L269.531 148.713C268.952 148.424 268.518 147.556 268.518 146.833V142.348C268.518 141.625 268.952 141.191 269.531 141.625L273.726 144.084C274.305 144.373 274.739 145.241 274.739 145.965V150.449C274.739 151.173 274.305 151.607 273.726 151.173Z" fill="#173D7A"/>
<path d="M294.559 233.051L205.15 181.407C202.546 179.96 200.52 175.909 200.52 172.438V156.091C200.52 152.619 202.546 151.028 205.15 152.619L294.559 204.263C297.164 205.71 299.189 209.76 299.189 213.232V229.579C299.334 232.906 297.164 234.498 294.559 233.051Z" fill="#5793CE"/>
<path d="M287.904 218.585L283.709 216.126C283.13 215.836 282.696 214.968 282.696 214.245V209.76C282.696 209.037 283.13 208.603 283.709 209.037L287.904 211.496C288.483 211.786 288.917 212.654 288.917 213.377V217.862C288.917 218.44 288.338 218.874 287.904 218.585Z" fill="#173D7A"/>
<path d="M273.726 210.484L269.531 208.025C268.952 207.735 268.518 206.867 268.518 206.144V201.659C268.518 200.936 268.952 200.502 269.531 200.936L273.726 203.395C274.305 203.685 274.739 204.553 274.739 205.276V209.76C274.739 210.339 274.305 210.773 273.726 210.484Z" fill="#D4ECFF"/>
<path d="M294.559 292.218L205.15 240.574C202.546 239.127 200.52 235.076 200.52 231.605V215.258C200.52 211.786 202.546 210.195 205.15 211.786L294.559 263.43C297.164 264.877 299.189 268.927 299.189 272.399V288.746C299.334 292.073 297.164 293.665 294.559 292.218Z" fill="#5793CE"/>
<path d="M287.904 277.752L283.709 275.293C283.13 275.003 282.696 274.135 282.696 273.412V268.927C282.696 268.204 283.13 267.77 283.709 268.204L287.904 270.663C288.483 270.953 288.917 271.821 288.917 272.544V277.029C288.917 277.752 288.338 278.041 287.904 277.752Z" fill="#D4ECFF"/>
<path d="M273.726 269.651L269.531 267.192C268.952 266.902 268.518 266.034 268.518 265.311V260.826C268.518 260.103 268.952 259.669 269.531 260.103L273.726 262.562C274.305 262.852 274.739 263.72 274.739 264.443V268.928C274.739 269.651 274.305 269.94 273.726 269.651Z" fill="#173D7A"/>
<path d="M294.559 351.385L205.15 299.741C202.546 298.294 200.52 294.243 200.52 290.772V274.425C200.52 270.953 202.546 269.362 205.15 270.953L294.559 322.597C297.164 324.044 299.189 328.094 299.189 331.566V347.913C299.334 351.24 297.164 352.832 294.559 351.385Z" fill="#5793CE"/>
<path d="M287.904 336.919L283.709 334.459C283.13 334.17 282.696 333.302 282.696 332.579V328.094C282.696 327.371 283.13 326.937 283.709 327.371L287.904 329.83C288.483 330.119 288.917 330.987 288.917 331.711V336.195C288.917 336.919 288.338 337.208 287.904 336.919Z" fill="#D4ECFF"/>
<path d="M273.726 328.818L269.531 326.358C268.952 326.069 268.518 325.201 268.518 324.478V319.993C268.518 319.27 268.952 318.836 269.531 319.27L273.726 321.729C274.305 322.018 274.739 322.886 274.739 323.61V328.094C274.739 328.818 274.305 329.107 273.726 328.818Z" fill="#D4ECFF"/>
<path d="M338.83 173.884L384.692 147.7C387.296 146.254 389.322 142.203 389.322 138.731V122.24C389.322 118.768 387.296 117.177 384.692 118.768L338.83 144.952C336.226 146.399 334.201 150.449 334.201 153.921V170.268C334.201 173.74 336.226 175.331 338.83 173.884Z" fill="#173D7A"/>
<path d="M338.83 233.051L384.692 206.867C387.296 205.421 389.322 201.37 389.322 197.898V181.551C389.322 178.08 387.296 176.488 384.692 178.08L338.83 204.263C336.226 205.71 334.201 209.761 334.201 213.232V229.579C334.201 232.907 336.226 234.498 338.83 233.051Z" fill="#173D7A"/>
<path d="M338.83 292.218L384.692 266.034C387.296 264.588 389.322 260.537 389.322 257.065V240.718C389.322 237.246 387.296 235.655 384.692 237.247L338.83 263.43C336.226 264.877 334.201 268.928 334.201 272.399V288.746C334.201 292.074 336.226 293.665 338.83 292.218Z" fill="#173D7A"/>
<path d="M338.83 351.385L384.692 325.201C387.296 323.755 389.322 319.704 389.322 316.232V299.885C389.322 296.414 387.296 294.822 384.692 296.413L338.83 322.597C336.226 324.044 334.201 328.095 334.201 331.566V347.913C334.201 351.241 336.226 352.832 338.83 351.385Z" fill="#173D7A"/>
<path opacity="0.5" d="M48.0323 395.507L12.0081 374.676C9.83793 373.374 10.1273 371.204 12.5868 369.757L47.4536 349.649C50.0577 348.202 53.8193 348.058 56.1341 349.36L92.1583 370.191C94.3285 371.493 94.0391 373.663 91.5796 375.11L56.7128 395.218C54.1087 396.664 50.3471 396.809 48.0323 395.507Z" fill="#C4D9E8"/>
<path d="M104.166 354.134V338.51H69.1549L57.0022 331.566C54.2533 329.975 49.3344 330.12 46.1515 332L34.8668 338.51H-1.65589e-06V354.568C-0.144677 355.58 0.578701 356.737 1.88078 357.461L47.0196 383.5C49.7684 385.091 54.6874 384.947 57.8702 383.066L101.562 357.895C103.298 356.882 104.166 355.435 104.166 354.134Z" fill="#EF5F65"/>
<path d="M52.0832 330.554C50.0577 330.554 47.8876 331.132 46.2962 332.145L35.0115 338.655L-1.65589e-06 338.51V354.568C-0.144677 355.58 0.5787 356.738 1.88078 357.461L47.0196 383.5C48.3216 384.224 50.2024 384.657 52.0832 384.513V330.554Z" fill="#EF5F65"/>
<path d="M3.90624 338.51H-1.65589e-06V354.568C-0.144677 355.58 0.5787 356.738 1.88078 357.461L4.05091 358.618V338.51H3.90624Z" fill="#EF707A"/>
<path d="M47.7429 383.934C50.2024 384.947 53.53 384.947 56.4235 383.79V365.562H47.7429V383.934Z" fill="#EF707A"/>
<path d="M47.0196 367.587L1.88078 341.548C-0.868055 339.957 -0.578704 337.208 2.60416 335.328L46.2962 310.012C49.479 308.131 54.398 307.986 57.1468 309.578L102.286 335.617C105.034 337.208 104.745 339.957 101.562 341.837L57.8702 367.153C54.6874 369.034 49.7684 369.179 47.0196 367.587Z" fill="#D1525C"/>
<path d="M47.8876 362.814L9.98261 340.97C7.6678 339.668 7.95715 337.353 10.5613 335.762L47.1642 314.641C49.9131 313.05 53.964 312.905 56.2788 314.207L94.1838 336.051C96.4986 337.353 96.2092 339.668 93.6051 341.259L57.0022 362.38C54.2533 364.116 50.2024 364.26 47.8876 362.814Z" fill="#D1525C"/>
<path d="M87.5287 358.329C87.5287 359.486 86.6607 360.933 85.6479 361.511C84.6352 362.09 83.7672 361.656 83.7672 360.499C83.7672 359.341 84.6352 357.895 85.6479 357.316C86.6607 356.593 87.5287 357.171 87.5287 358.329Z" fill="white"/>
<path d="M93.3157 354.857C93.3157 356.014 92.4477 357.461 91.4349 358.039C90.4222 358.618 89.5542 358.184 89.5542 357.027C89.5542 355.869 90.4222 354.423 91.4349 353.844C92.5924 353.265 93.3157 353.699 93.3157 354.857Z" fill="white"/>
<path d="M99.2474 351.53C99.2474 352.687 98.3794 354.133 97.3667 354.712C96.3539 355.291 95.4859 354.857 95.4859 353.699C95.4859 352.542 96.3539 351.096 97.3667 350.517C98.3794 349.938 99.2474 350.372 99.2474 351.53Z" fill="white"/>
<path d="M104.166 328.962V313.339H69.1549L57.0022 306.395C54.2533 304.804 49.3344 304.948 46.1515 306.829L34.8668 313.339H-0.144678V329.396C-0.289353 330.409 0.434025 331.566 1.7361 332.29L46.8749 358.329C49.6237 359.92 54.5427 359.775 57.7256 357.895L101.418 332.724C103.298 331.566 104.166 330.12 104.166 328.962Z" fill="#EF5F65"/>
<path d="M52.0832 305.238C50.0577 305.238 47.8876 305.816 46.2962 306.829L35.0115 313.339H-1.65589e-06V329.396C-0.144677 330.409 0.5787 331.566 1.88078 332.29L47.0196 358.329C48.3216 359.052 50.2024 359.486 52.0832 359.342V305.238Z" fill="#EF5F65"/>
<path d="M3.90624 313.194H-1.65589e-06V329.252C-0.144677 330.265 0.5787 331.422 1.88078 332.145L4.05091 333.302V313.194H3.90624Z" fill="#EF707A"/>
<path d="M47.7429 358.618C50.2024 359.631 53.53 359.631 56.4235 358.474V340.246H47.7429V358.618Z" fill="#EF707A"/>
<path d="M47.0196 342.271L1.88078 316.232C-0.868055 314.641 -0.578704 311.892 2.60416 310.012L46.2962 284.84C49.479 282.96 54.398 282.815 57.1468 284.407L102.286 310.446C105.034 312.037 104.745 314.786 101.562 316.666L57.8702 341.838C54.6874 343.718 49.7684 343.863 47.0196 342.271Z" fill="#D1525C"/>
<path d="M47.8876 337.642L9.98261 315.798C7.6678 314.496 7.95715 312.182 10.5613 310.59L47.1642 289.47C49.9131 287.878 53.964 287.734 56.2788 289.036L94.1838 310.88C96.4986 312.182 96.2092 314.496 93.6051 316.087L57.0022 337.208C54.2533 338.799 50.2024 338.944 47.8876 337.642Z" fill="#D1525C"/>
<path d="M87.5287 333.013C87.5287 334.17 86.6607 335.617 85.6479 336.196C84.6352 336.774 83.7672 336.34 83.7672 335.183C83.7672 334.026 84.6352 332.579 85.6479 332C86.6607 331.422 87.5287 331.856 87.5287 333.013Z" fill="white"/>
<path d="M93.3157 329.686C93.3157 330.843 92.4477 332.29 91.4349 332.868C90.4222 333.447 89.5542 333.013 89.5542 331.856C89.5542 330.698 90.4222 329.252 91.4349 328.673C92.5924 327.95 93.3157 328.528 93.3157 329.686Z" fill="white"/>
<path d="M99.2474 326.214C99.2474 327.371 98.3794 328.818 97.3667 329.396C96.3539 329.975 95.4859 329.541 95.4859 328.384C95.4859 327.226 96.3539 325.78 97.3667 325.201C98.3794 324.622 99.2474 325.056 99.2474 326.214Z" fill="white"/>
<path d="M104.166 303.646V288.023H69.1549L57.0022 281.079C54.2533 279.488 49.3344 279.632 46.1515 281.513L34.8668 288.023H-0.144678V304.08C-0.289353 305.093 0.434025 306.25 1.7361 306.974L46.8749 333.013C49.6237 334.604 54.5427 334.46 57.7256 332.579L101.418 307.408C103.298 306.25 104.166 304.948 104.166 303.646Z" fill="#EF5F65"/>
<path d="M52.0832 279.922C50.0577 279.922 47.8876 280.501 46.2962 281.513L35.0115 288.023H-1.65589e-06V304.081C-0.144677 305.093 0.5787 306.25 1.88078 306.974L47.0196 333.013C48.3216 333.736 50.2024 334.17 52.0832 334.026V279.922Z" fill="#EF5F65"/>
<path d="M3.90624 288.023H-1.65589e-06V304.08C-0.144677 305.093 0.5787 306.25 1.88078 306.974L4.05091 308.131V288.023H3.90624Z" fill="#EF707A"/>
<path d="M47.7429 333.302C50.2024 334.315 53.53 334.315 56.4235 333.158V314.93H47.7429V333.302Z" fill="#EF707A"/>
<path d="M47.0196 316.956L1.88078 290.916C-0.868055 289.325 -0.578704 286.576 2.60416 284.696L46.2962 259.525C49.479 257.644 54.398 257.499 57.1468 259.091L102.286 285.13C105.034 286.721 104.745 289.47 101.562 291.35L57.8702 316.522C54.6874 318.402 49.7684 318.547 47.0196 316.956Z" fill="#D1525C"/>
<path d="M101.562 288.312L57.8702 313.484C54.6874 315.364 49.7684 315.509 47.0196 313.918L1.88078 287.878C1.30208 287.589 0.868054 287.155 0.434027 286.721C-0.578702 288.312 -0.144675 289.904 1.88078 291.061L47.0196 317.1C49.7684 318.691 54.6874 318.547 57.8702 316.666L101.562 291.495C104.022 290.048 104.745 288.023 103.732 286.432C103.154 287.01 102.43 287.734 101.562 288.312Z" fill="#F27C85"/>
<path d="M87.5287 307.697C87.5287 308.854 86.6607 310.301 85.6479 310.88C84.6352 311.458 83.7672 311.024 83.7672 309.867C83.7672 308.71 84.6352 307.263 85.6479 306.684C86.6607 306.106 87.5287 306.54 87.5287 307.697Z" fill="white"/>
<path d="M93.3157 304.37C93.3157 305.527 92.4477 306.974 91.4349 307.552C90.4222 308.131 89.5542 307.697 89.5542 306.54C89.5542 305.383 90.4222 303.936 91.4349 303.357C92.5924 302.779 93.3157 303.213 93.3157 304.37Z" fill="white"/>
<path d="M99.2474 300.898C99.2474 302.055 98.3794 303.502 97.3667 304.081C96.3539 304.659 95.4859 304.225 95.4859 303.068C95.4859 301.911 96.3539 300.464 97.3667 299.885C98.3794 299.307 99.2474 299.741 99.2474 300.898Z" fill="white"/>
<path d="M49.7684 301.477L28.6458 289.325C27.3437 288.602 27.4884 287.3 29.0798 286.432L49.479 274.714C50.9258 273.846 53.2406 273.702 54.5427 274.569L75.6653 286.721C76.9674 287.444 76.8227 288.746 75.2313 289.614L54.832 301.332C53.2406 302.2 51.0705 302.345 49.7684 301.477Z" fill="#EF5F65"/>
<path d="M51.7938 291.35L48.9003 289.614C48.7557 289.47 48.7557 289.325 48.9003 289.18L51.7938 287.589C51.9385 287.444 52.3725 287.444 52.5172 287.589L55.4107 289.325C55.5554 289.47 55.5554 289.614 55.4107 289.759L52.5172 291.35C52.2279 291.35 51.9385 291.35 51.7938 291.35Z" fill="white"/>
<path d="M64.67 304.659L61.7765 302.923C61.6318 302.779 61.6318 302.634 61.7765 302.489L64.67 300.898C64.8147 300.753 65.2487 300.753 65.3934 300.898L68.2869 302.634C68.4315 302.779 68.4315 302.923 68.2869 303.068L65.3934 304.659C65.2487 304.804 64.9593 304.804 64.67 304.659Z" fill="white"/>
<path d="M71.0357 301.043L68.1422 299.307C67.9975 299.162 67.9975 299.017 68.1422 298.873L71.0357 297.281C71.1804 297.137 71.6144 297.137 71.7591 297.281L74.6526 299.017C74.7973 299.162 74.7973 299.307 74.6526 299.451L71.7591 301.043C71.6144 301.043 71.3251 301.043 71.0357 301.043Z" fill="white"/>
<path d="M77.5461 297.281L74.6526 295.545C74.5079 295.401 74.5079 295.256 74.6526 295.111L77.5461 293.52C77.6908 293.375 78.1248 293.375 78.2695 293.52L81.163 295.256C81.3077 295.401 81.3077 295.545 81.163 295.69L78.2695 297.281C77.9801 297.281 77.6908 297.426 77.5461 297.281Z" fill="white"/>
<path d="M28.6458 289.325C28.7904 289.325 28.9351 289.18 29.0798 289.18L49.479 277.463C50.9258 276.595 53.2406 276.45 54.5427 277.318L75.6653 289.47C76.8227 288.602 76.9674 287.444 75.6653 286.721L54.5427 274.569C53.2406 273.846 50.9258 273.846 49.479 274.714L28.9351 286.432C27.4884 287.3 27.3437 288.602 28.6458 289.325Z" fill="#F27C85"/>
<path d="M33.5647 345.599L15.3356 335.038C14.1782 334.315 13.3102 332.579 13.3102 331.132C13.3102 329.686 14.1782 328.962 15.3356 329.541L33.5647 340.101C34.7221 340.825 35.5902 342.561 35.5902 344.007C35.5902 345.599 34.7221 346.177 33.5647 345.599Z" fill="#D1525C"/>
<path d="M35.1562 344.586L16.927 334.026C15.7696 333.447 14.9016 331.566 14.9016 330.12C14.9016 329.831 14.9016 329.686 15.0463 329.397C14.0335 329.107 13.3102 329.686 13.3102 331.132C13.3102 332.579 14.1782 334.315 15.3356 335.038L33.5647 345.599C34.4328 346.177 35.3008 345.743 35.5902 344.731C35.4455 344.731 35.3008 344.586 35.1562 344.586Z" fill="#F27C85"/>
<path d="M445.601 379.739C448.784 381.041 450.809 384.658 450.52 388.564C450.375 390.444 450.23 392.035 449.796 392.903C448.784 395.073 445.456 397.967 440.103 395.941C434.75 393.771 422.887 382.632 422.453 375.399C421.729 361.656 437.209 376.123 445.601 379.739Z" fill="#173D7A"/>
<path d="M414.351 402.017C414.351 402.017 415.653 409.829 415.074 411.276C414.495 412.722 410.734 415.76 405.236 415.037C399.739 414.313 383.969 408.961 380.497 398.545C374.999 382.488 411.023 399.703 411.023 399.703L414.351 402.017Z" fill="#173D7A"/>
<path d="M398.871 277.318L397.713 399.124C397.858 403.319 400.607 406.936 404.368 407.514C404.802 407.659 405.381 407.659 405.815 407.659C409.576 407.948 411.747 406.357 413.049 404.621C414.061 403.174 414.64 401.438 414.64 399.702L416.232 347.624L424.044 301.187L434.75 383.5C434.895 385.67 436.052 387.84 437.644 388.853C438.801 389.576 440.392 390.299 442.562 390.155C445.601 390.01 447.771 388.419 449.073 386.972C450.086 385.815 450.664 384.223 450.664 382.632L446.469 333.158L444.877 269.94L398.871 277.318Z" fill="#FDD762"/>
<path d="M449.796 237.247C449.507 237.247 449.362 237.247 449.073 237.247L429.542 234.209C427.082 233.775 425.491 231.605 425.925 229.145C426.359 226.686 428.529 225.095 430.988 225.529L444.443 227.554L439.814 201.37C439.38 199.056 440.971 196.741 443.431 196.307C445.745 195.873 448.06 197.464 448.494 199.924L454.137 232.183C454.426 233.63 453.992 234.932 452.979 235.945C452.111 236.813 450.954 237.247 449.796 237.247Z" fill="#FFC2B0"/>
<path d="M432.001 175.042C432.001 175.042 438.512 174.608 446.903 191.967C455.294 209.182 443.865 214.679 443.865 214.679L432.001 175.042Z" fill="#EF5F65"/>
<path d="M414.206 179.526C414.495 179.381 432.146 168.098 438.656 179.96C449.362 199.345 448.639 261.839 445.311 269.795C442.273 277.318 434.461 282.815 428.963 285.853C424.189 288.602 418.691 290.338 413.193 290.338C407.696 290.338 397.134 285.419 397.424 278.331C399.16 245.203 396.266 217.283 393.517 190.086C393.517 190.231 396.99 186.615 414.206 179.526Z" fill="#EF5F65"/>
<path d="M386.284 247.228C386.718 247.228 387.296 247.084 387.731 246.794C389.033 246.216 389.901 244.914 390.19 243.322L398.581 218.874C399.015 216.415 394.53 206.433 392.36 206.144C390.045 205.71 384.403 210.195 383.969 212.654L381.943 234.498L361.255 224.372C359.085 223.214 357.349 220.9 356.047 223.07C354.744 225.24 355.323 228.133 357.204 229.435L383.969 246.36C384.548 247.084 385.416 247.373 386.284 247.228Z" fill="#FFC2B0"/>
<path d="M359.663 223.648L358.361 220.466C357.927 219.308 357.204 218.296 356.336 217.428L350.838 212.365C350.404 211.931 349.681 212.075 349.247 212.509C348.957 212.943 348.957 213.522 349.247 213.811L351.562 216.27C351.996 216.704 351.996 217.283 351.851 217.717L350.983 220.176C350.694 221.044 350.838 221.912 351.417 222.636L356.915 229.29L359.663 223.648Z" fill="#FFC2B0"/>
<path d="M393.517 190.231C393.517 190.231 381.799 199.345 379.918 226.975C379.918 226.975 379.629 230.013 386.428 231.894C393.228 233.775 397.858 228.422 397.858 228.422C397.858 228.422 405.96 210.05 393.517 190.231Z" fill="#EF5F65"/>
<path d="M415.798 168.966L417.678 180.105C417.678 180.105 417.678 183.866 413.483 184.879C409.287 185.891 407.985 183.143 407.985 183.143L406.104 170.702L415.798 168.966Z" fill="#FFC2B0"/>
<path d="M392.939 169.255C397.568 178.079 407.551 181.985 415.508 177.935C423.321 173.884 426.069 163.324 421.44 154.499C416.81 145.675 406.828 141.769 398.871 145.82C391.058 150.015 388.309 160.431 392.939 169.255Z" fill="#FFC2B0"/>
<path d="M404.368 167.664C403.645 167.809 403.066 167.519 402.487 167.085C401.619 166.217 401.33 161.733 399.16 161.443C395.832 160.865 388.888 166.073 386.139 154.789C384.692 148.858 387.296 146.833 386.718 143.505C386.718 143.505 386.718 145.241 401.909 141.48C417.1 137.863 424.478 150.594 425.925 156.959C427.372 163.324 426.069 174.608 415.798 177.935C414.061 178.514 405.815 173.884 405.815 173.016C405.815 172.148 408.564 171.714 407.84 169.545C407.406 167.953 406.104 167.375 404.368 167.664Z" fill="#173D7A"/>
<path d="M424.044 301.332L434.75 383.645C434.895 385.815 436.052 387.985 437.644 388.997C437.933 389.142 438.222 389.287 438.512 389.576C436.341 387.84 429.831 318.836 428.529 311.169C427.372 303.502 424.044 301.332 424.044 301.332Z" fill="#D8892B"/>
<path d="M396.99 229.29V229.579C398.002 244.914 398.292 260.971 397.424 278.475C397.279 281.369 398.87 283.828 401.185 285.853C403.934 252.291 401.185 223.07 401.185 223.07C399.738 227.843 396.99 229.29 396.99 229.29Z" fill="#D1525C"/>
<path opacity="0.5" d="M229.6 427.478C212.239 437.459 184.172 437.459 166.956 427.478C149.595 417.496 149.595 401.294 166.956 391.312C184.317 381.33 212.384 381.33 229.6 391.312C246.817 401.294 246.817 417.496 229.6 427.478Z" fill="#C4D9E8"/>
<path d="M216.145 395.797C214.988 395.218 213.83 394.639 212.528 394.061L205.729 391.023L206.307 392.18C201.099 391.167 195.457 391.023 190.248 392.035L190.538 390.733L182.436 394.35C181.423 394.784 180.41 395.218 179.398 395.797C169.27 401.583 169.27 411.131 179.398 416.917C189.525 422.704 205.873 422.704 215.856 416.917C226.273 410.986 226.273 401.583 216.145 395.797Z" fill="#EF5F65"/>
<path d="M206.452 401.294C201.678 404.042 194.01 404.042 189.38 401.294C184.606 398.545 184.606 394.205 189.38 391.456C194.155 388.708 201.822 388.708 206.452 391.456C211.226 394.06 211.226 398.545 206.452 401.294Z" fill="#D1525C"/>
<path d="M197.916 398.256C195.601 398.256 193.865 396.375 193.865 394.205V342.271H202.112V394.205C201.967 396.375 200.231 398.256 197.916 398.256Z" fill="#EF5F65"/>
<path d="M200.81 344.007C199.218 345.02 196.469 345.02 194.878 344.007C193.287 342.995 193.287 341.548 194.878 340.535C196.469 339.523 199.218 339.523 200.81 340.535C202.401 341.548 202.401 342.995 200.81 344.007Z" fill="#D1525C"/>
<path d="M197.916 343.863C196.035 343.863 194.589 342.416 194.589 340.536V291.64H201.244V340.536C201.244 342.416 199.797 343.863 197.916 343.863Z" fill="#EF5F65"/>
<path d="M245.804 317.245V315.364L248.553 314.93L251.591 312.616C252.025 312.182 253.038 312.182 253.616 312.471L255.786 313.773L257.957 313.484V315.364C257.957 315.654 257.812 315.798 257.378 315.943L250.289 319.125C249.71 319.415 248.987 319.415 248.408 319.125L246.093 317.823C245.948 317.679 245.948 317.534 245.804 317.245Z" fill="#EF5F65"/>
<path d="M246.238 314.786L251.735 310.735C252.17 310.301 253.182 310.301 253.761 310.59L257.812 312.905C258.391 313.194 258.391 313.773 257.667 314.062L250.578 317.245C249.999 317.534 249.276 317.534 248.697 317.245L246.382 315.943C245.804 315.654 245.804 315.22 246.238 314.786Z" fill="#D1525C"/>
<path d="M236.979 324.044C237.702 324.044 238.57 323.899 239.149 323.465L247.54 318.547C247.974 318.257 248.119 317.679 247.829 317.245C247.54 316.811 246.961 316.666 246.527 316.955L238.136 321.874C237.557 322.308 236.4 322.308 235.677 321.874L221.643 313.773C221.209 313.484 220.63 313.628 220.341 314.062C220.052 314.496 220.196 315.075 220.63 315.364L234.664 323.465C235.387 323.899 236.255 324.044 236.979 324.044Z" fill="#EF5F65"/>
<path d="M155.671 306.25L169.27 298.294L161.603 294.822L155.092 299.451L155.671 306.25Z" fill="url(#paint0_radial)"/>
<path d="M242.91 294.533C242.187 294.099 241.464 293.665 240.595 293.086L211.66 271.821C206.452 268.06 201.099 267.047 196.903 269.072C196.759 269.072 196.759 269.217 196.614 269.217L156.684 292.363L160.301 293.52L174.334 299.885L193.431 313.339L208.477 321.295L209.201 321.44C212.673 318.547 216.579 315.943 218.749 311.603C222.511 305.093 232.783 303.213 238.859 298.005C239.438 298.439 240.017 298.728 240.74 299.017C241.753 298.005 242.042 296.269 242.91 294.533Z" fill="#EF5F65"/>
<path d="M255.497 284.985C254.918 284.985 254.34 285.274 253.906 285.564L214.843 308.131L216.29 313.918L217.737 313.194C215.567 316.666 212.094 318.981 208.912 321.585L213.396 322.453L251.735 300.175C251.88 300.03 252.025 300.03 252.314 299.885C252.893 299.596 253.327 299.307 253.761 299.017C256.654 296.703 258.391 292.797 258.391 288.023V287.589C258.246 286.142 257.088 284.985 255.497 284.985Z" fill="#D1525C"/>
<path d="M201.967 268.06C204.427 268.204 207.031 268.928 209.635 270.519C207.031 268.928 204.427 268.204 201.967 268.06Z" fill="#F27C85"/>
<path d="M219.762 309.867V309.433C219.762 307.986 218.605 306.684 217.013 306.684C215.567 306.684 214.265 307.842 214.265 309.433V309.867C214.265 313.484 213.107 316.087 211.082 317.1C208.767 318.257 205.439 317.389 201.967 314.786L173.032 293.52C168.547 290.193 164.062 289.036 160.156 290.048L184.027 276.161L156.394 292.218L160.011 293.375L174.045 299.741L193.142 313.194L208.188 321.151L208.911 321.295C212.384 318.402 216.29 315.798 218.46 311.458C218.894 310.88 219.328 310.156 219.762 309.722C219.762 310.012 219.762 310.012 219.762 309.867Z" fill="#F27C85"/>
<path d="M208.188 323.899C205.005 323.899 201.533 322.597 198.061 320.138L169.126 298.873C165.653 296.269 162.181 295.545 160.011 296.558C157.986 297.571 156.828 300.175 156.828 303.791C156.828 305.238 155.671 306.54 154.079 306.54C152.633 306.54 151.331 305.382 151.331 303.791C151.331 298.149 153.501 293.665 157.407 291.784C161.603 289.614 166.956 290.627 172.164 294.533L201.099 315.798C204.571 318.402 208.043 319.125 210.214 318.113C212.239 317.1 213.396 314.496 213.396 310.88V310.446C213.396 308.999 214.554 307.697 216.145 307.697C217.592 307.697 218.894 308.854 218.894 310.446V310.88C218.894 316.521 216.724 321.006 212.818 322.887C211.516 323.61 209.924 323.899 208.188 323.899Z" fill="#D1525C"/>
<path d="M185.474 371.349C185.474 371.349 179.976 368.6 176.649 372.651C173.321 376.701 168.547 386.394 168.402 392.903C168.258 399.413 173.611 398.979 176.794 397.388C179.976 395.797 189.236 382.488 189.67 379.884C190.248 377.28 188.946 373.663 188.078 373.085C187.21 372.361 185.474 371.349 185.474 371.349Z" fill="#173D7A"/>
<path d="M186.631 370.046L186.921 375.688C186.921 376.846 186.342 378.003 185.329 378.581C184.317 379.16 183.015 379.594 181.134 379.305C177.083 378.581 176.649 377.424 176.36 371.782C176.07 366.14 186.631 370.046 186.631 370.046Z" fill="#E8A200"/>
<path d="M165.509 360.499C165.509 360.499 160.011 357.75 156.684 361.801C153.356 365.851 148.582 375.543 148.437 382.053C148.292 388.563 153.645 388.129 156.828 386.538C160.011 384.947 169.27 371.638 169.704 369.034C170.283 366.43 168.981 362.813 168.113 362.234C167.245 361.511 165.509 360.499 165.509 360.499Z" fill="#173D7A"/>
<path d="M166.811 359.197L167.1 364.839C167.1 365.996 166.522 367.153 165.509 367.732C164.496 368.31 163.194 368.744 161.313 368.455C157.262 367.732 156.828 366.575 156.539 360.933C156.105 355.291 166.811 359.197 166.811 359.197Z" fill="#E8A200"/>
<path d="M215.422 255.474C213.83 229.29 187.066 259.38 187.066 259.38L168.692 277.318L152.199 295.401C149.016 298.873 147.424 303.791 148.148 308.42L154.803 359.342C155.092 361.801 157.262 363.681 159.866 363.681C160.59 363.681 161.458 363.681 162.326 363.537C168.258 362.669 167.824 356.882 167.824 356.882L166.666 309.288L201.388 288.312C201.099 288.457 217.013 281.802 215.422 255.474Z" fill="#FDD762"/>
<path d="M235.242 265.456C233.651 239.272 206.886 269.361 206.886 269.361L188.512 287.3L172.019 305.382C168.836 308.854 167.245 313.773 167.968 318.402L174.623 369.323C174.913 371.782 177.083 373.663 179.687 373.663C180.41 373.663 181.278 373.663 182.147 373.518C188.078 372.65 187.644 366.864 187.644 366.864L186.487 319.27L221.209 298.294C221.064 298.439 236.979 291.784 235.242 265.456Z" fill="#FDD762"/>
<path d="M219.473 181.262C239.727 189.652 239.438 201.659 239.438 201.659C239.438 201.659 235.387 245.637 236.834 275.148C237.413 287.444 171.441 288.312 181.278 255.618C192.853 216.994 188.512 185.602 194.01 180.973C199.363 176.199 214.264 179.092 219.473 181.262Z" fill="#EF5F65"/>
<path d="M213.944 196.784C219.515 198.219 224.888 196.058 225.944 191.957C227 187.856 223.34 183.369 217.769 181.935C212.198 180.5 206.825 182.661 205.769 186.762C204.713 190.862 208.373 195.35 213.944 196.784Z" fill="#FFC2B0"/>
<path d="M217.447 198.188C216.29 198.188 214.988 198.043 213.686 197.754C207.609 196.162 203.559 191.099 204.716 186.47C205.873 181.841 211.805 179.381 218.026 180.973C224.102 182.564 228.153 187.627 226.996 192.256C226.417 194.571 224.681 196.452 222.077 197.464C220.63 197.898 219.039 198.188 217.447 198.188ZM214.265 182.419C210.503 182.419 207.32 184.155 206.597 187.049C205.729 190.665 209.056 194.571 214.12 196.018C216.579 196.596 219.183 196.596 221.209 195.728C223.234 194.86 224.536 193.558 224.97 191.822C225.839 188.206 222.511 184.3 217.447 182.853C216.435 182.564 215.277 182.419 214.265 182.419Z" fill="white"/>
<path d="M211.371 180.394C211.371 180.394 211.516 181.262 211.226 187.627C211.082 189.652 218.171 191.533 220.052 189.652C221.932 187.772 221.209 185.891 221.643 179.092C221.932 172.148 211.371 180.394 211.371 180.394Z" fill="#FFC2B0"/>
<path d="M221.498 179.092C221.498 179.092 219.762 185.457 211.082 187.916L211.226 182.13L221.498 179.092Z" fill="#EA9C92"/>
<path d="M211.805 182.419C220.434 182.419 227.43 175.425 227.43 166.796C227.43 158.167 220.434 151.172 211.805 151.172C203.176 151.172 196.18 158.167 196.18 166.796C196.18 175.425 203.176 182.419 211.805 182.419Z" fill="#FFC2B0"/>
<path d="M215.422 167.375C215.422 167.375 206.741 170.991 200.81 171.136C194.878 171.136 196.18 166.217 196.18 166.217L213.83 163.613L215.422 167.375Z" fill="#EA9C92"/>
<path d="M199.074 168.387C199.074 168.387 206.597 165.205 213.107 166.506C214.699 166.796 216.145 167.664 217.013 168.821C217.303 169.255 217.737 169.544 218.171 169.689C219.328 169.978 221.209 165.06 223.524 165.06C225.839 165.06 227.285 166.506 225.405 169.544C223.524 172.582 224.102 175.91 224.971 176.344C225.839 176.778 234.953 169.834 226.851 154.066C218.894 138.153 198.495 146.688 195.312 150.015C195.312 150.015 191.984 152.908 189.236 150.304C189.525 150.16 186.487 172.872 199.074 168.387Z" fill="#173D7A"/>
<path d="M228.009 233.919V245.782C228.009 247.084 227.43 248.385 226.417 249.398L201.967 271.676L204.716 275.871L236.979 254.317C238.425 253.159 239.438 251.568 239.583 249.687L241.753 227.12L228.009 233.919Z" fill="#FFC2B0"/>
<path d="M237.702 195.728C237.702 195.728 245.08 206.867 247.829 236.234C247.829 236.234 235.098 240.284 228.009 237.97C220.775 235.8 237.702 195.728 237.702 195.728Z" fill="#EF5F65"/>
<path d="M226.562 209.905C226.562 209.905 223.668 225.384 223.524 232.762C223.524 234.787 224.681 236.523 226.562 237.246V209.905Z" fill="#D1525C"/>
<path d="M220.196 287.155L214.843 286.432L179.976 266.324C178.819 265.745 176.938 265.745 175.636 266.468L150.897 280.79L147.569 280.356V283.539C147.569 283.972 147.858 284.406 148.292 284.696L187.789 307.552C188.946 308.131 190.827 308.131 192.129 307.408L219.039 291.929C219.762 291.495 220.196 290.916 220.052 290.482V287.155H220.196Z" fill="#173D7A"/>
<path d="M194.01 274.425L191.55 272.978H164.351L150.897 280.79L147.569 280.356V283.539C147.569 283.973 147.858 284.407 148.292 284.696L187.789 307.553C188.368 307.842 189.236 307.987 190.104 307.987L194.01 274.425Z" fill="#396CAA"/>
<path d="M149.16 280.501L147.714 280.356V283.539C147.714 283.973 148.003 284.407 148.437 284.696L149.16 285.13V280.501Z" fill="#5793CE"/>
<path d="M188.368 307.697C189.38 308.131 190.972 307.986 192.129 307.408V301.911H188.368V307.697Z" fill="#274F89"/>
<path d="M187.933 304.225L148.437 281.369C147.279 280.79 147.424 279.633 148.726 278.909L175.636 263.431C176.938 262.707 178.819 262.563 179.976 263.286L219.472 286.143C220.63 286.721 220.485 287.878 219.183 288.602L192.273 304.081C190.971 304.804 189.091 304.949 187.933 304.225Z" fill="white"/>
<path d="M187.21 300.753L154.369 281.803C153.501 281.224 153.501 280.356 154.658 279.777L169.126 271.676C170.138 271.098 171.875 270.953 172.743 271.532L205.584 290.482C206.452 291.061 206.452 291.929 205.295 292.508L190.827 300.609C189.814 301.332 188.223 301.332 187.21 300.753Z" fill="#D4ECFF"/>
<path d="M177.228 262.707L176.794 265.456C176.504 267.77 176.504 270.085 176.938 272.399L177.372 274.859C177.662 276.161 178.674 277.318 180.121 277.463C181.134 277.607 182.147 276.884 182.291 275.871L183.015 270.085C183.015 270.085 184.461 272.11 185.185 272.11C185.908 272.11 184.317 266.324 182.725 262.996C181.134 259.669 177.228 262.707 177.228 262.707Z" fill="#FFC2B0"/>
<path d="M190.538 219.308L186.342 227.699C185.329 229.724 184.751 231.894 184.606 234.064L182.725 262.707L177.083 262.562L174.479 230.303C174.334 229.29 174.479 228.277 174.623 227.265L177.517 210.918L190.538 219.308Z" fill="#FFC2B0"/>
<path d="M186.631 306.395L183.304 302.055L148.437 281.947C147.28 281.368 146.412 279.632 146.412 278.041V249.543L144.386 246.939L146.267 245.781C146.556 245.492 147.135 245.492 147.569 245.926L187.065 268.783C188.223 269.361 189.091 271.097 189.091 272.689V303.791C189.091 304.659 188.802 305.238 188.368 305.382L186.631 306.395Z" fill="#173D7A"/>
<path d="M162.471 290.048L160.011 288.602L146.412 265.022V249.543L144.386 246.939L146.267 245.781C146.556 245.492 147.135 245.492 147.569 245.926L187.066 268.783C187.644 269.072 188.223 269.795 188.512 270.519L162.471 290.048Z" fill="#396CAA"/>
<path d="M145.254 248.096L144.386 246.939L146.267 245.781C146.556 245.492 147.135 245.492 147.569 245.926L148.292 246.36L145.254 248.096Z" fill="#5793CE"/>
<path d="M187.5 269.072C188.368 269.796 189.091 271.098 189.091 272.399L185.185 274.569L183.304 271.387L187.5 269.072Z" fill="#274F89"/>
<path d="M185.329 269.94L145.833 247.083C144.676 246.505 143.808 247.083 143.808 248.675V279.777C143.808 281.224 144.676 282.96 145.833 283.683L185.329 306.54C186.487 307.118 187.355 306.54 187.355 304.948V273.846C187.355 272.255 186.342 270.519 185.329 269.94Z" fill="white"/>
<path d="M204.716 275.871L204.137 277.173C203.414 278.62 202.256 279.922 200.81 280.79L196.903 283.249C195.746 283.972 194.155 284.117 192.853 283.394C192.853 283.394 192.708 283.394 192.708 283.249C191.406 282.526 191.406 280.645 192.418 279.633L196.469 275.437C196.469 275.437 194.155 277.173 193.576 276.45C193.142 275.871 195.746 273.412 197.916 273.267C199.942 273.123 201.967 271.531 201.967 271.531L204.716 275.871Z" fill="#FFC2B0"/>
<path d="M194.299 180.828C194.299 180.828 179.253 197.175 173.177 212.22C173.177 212.22 178.385 221.478 190.827 225.095C203.559 228.711 194.299 180.828 194.299 180.828Z" fill="#EF5F65"/>
<path d="M188.078 224.082L190.538 200.502L184.751 222.491C185.908 223.214 186.921 223.648 188.078 224.082Z" fill="#D1525C"/>
<path d="M205.584 177.501L201.533 176.344C201.533 176.344 203.414 179.381 206.307 180.105C209.056 180.828 209.49 178.513 209.49 178.513L205.584 177.501Z" fill="white"/>
<defs>
<radialGradient id="paint0_radial" cx="0" cy="0" r="1" gradientUnits="userSpaceOnUse" gradientTransform="translate(65.91 296.077) scale(83.8044 83.797)">
<stop stop-color="#01C8EF"/>
<stop offset="0.0894054" stop-color="#03BEE9"/>
<stop offset="0.2388" stop-color="#08A5D7"/>
<stop offset="0.4288" stop-color="#107BBB"/>
<stop offset="0.4457" stop-color="#1177B8"/>
<stop offset="1" stop-color="#112564"/>
</radialGradient>
</defs>
</svg>
